<?xml version="1.0" encoding="utf-8"?>
<!-- Generator: Adobe Illustrator 26.5.0, SVG Export Plug-In . SVG Version: 6.00 Build 0)  -->
<svg version="1.1" id="Layer_1" xmlns="http://www.w3.org/2000/svg" xmlns:xlink="http://www.w3.org/1999/xlink" x="0px" y="0px"
	 viewBox="0 0 668.14 188.67" style="enable-background:new 0 0 668.14 188.67;" xml:space="preserve">
<style type="text/css">
	.st0{fill:url(#SVGID_1_);}
	.st1{fill:url(#SVGID_00000168832184546977822310000000877424293632222121_);}
	.st2{fill:url(#SVGID_00000152242588936568090820000011072675683371703201_);}
	.st3{fill:url(#SVGID_00000167395052992444513310000002254378948174934187_);}
	.st4{fill:url(#SVGID_00000061465077161035430770000014239779206782565052_);}
	.st5{fill:url(#SVGID_00000098899256858464697970000000853485273413165480_);}
	.st6{fill:url(#SVGID_00000052796268185650395200000016211497256330214039_);}
	.st7{fill:url(#SVGID_00000151518889212505080190000009874902051419015810_);}
	.st8{fill:url(#SVGID_00000023961226500618510520000002815030153866710708_);}
	.st9{fill:url(#SVGID_00000072260160552644973370000016899594608104077473_);}
	.st10{fill:url(#SVGID_00000150824126995426638540000018189768321518010559_);}
	.st11{fill:url(#SVGID_00000128476264285769668370000000149415815116875948_);}
	.st12{fill:url(#SVGID_00000103946307018824110550000012096193821201526436_);}
	.st13{fill:url(#SVGID_00000175302864635523058890000010301370535055733139_);}
	.st14{fill:url(#SVGID_00000072256866475265912410000009467011188545569955_);}
	.st15{fill:url(#SVGID_00000062164997723804549070000013505852938826815620_);}
	.st16{fill:url(#SVGID_00000075143715765815027410000004164596952872313771_);}
	.st17{fill:url(#SVGID_00000165924162211173223680000001429559881131308955_);}
	.st18{fill:url(#SVGID_00000075159556507166874890000002357595295997187244_);}
	.st19{fill:url(#SVGID_00000029763476895635732010000017532386093141784211_);}
	.st20{fill:url(#SVGID_00000113355172893111309830000016726408827532720561_);}
	.st21{fill:url(#SVGID_00000173841447455493913030000012304017307465750433_);}
	.st22{fill:url(#SVGID_00000166635402961303651870000016425003549488563841_);}
	.st23{fill:url(#SVGID_00000095333983093510178500000015605881734271506350_);}
	.st24{fill:url(#SVGID_00000016038304140968274450000016323992963855790220_);}
	.st25{fill:url(#SVGID_00000016051784717805810180000005171262796707943046_);}
	.st26{fill:url(#SVGID_00000155110044457370997650000009856970824597583273_);}
	.st27{fill:url(#SVGID_00000047756207184225923060000000838436968098256787_);}
	.st28{fill:url(#SVGID_00000141448171770928139250000008956258649237667501_);}
	.st29{fill:url(#SVGID_00000183236915687324817530000005094997541184419984_);}
	.st30{fill:url(#SVGID_00000181056928955347091720000006684923587131407294_);}
	.st31{fill:url(#SVGID_00000145770780875751724860000015380481573720473478_);}
	.st32{fill:url(#SVGID_00000169538244553841333110000012584588146504448446_);}
	.st33{fill:url(#SVGID_00000008846518320200054450000002640398477689963962_);}
	.st34{fill:url(#SVGID_00000055703859513663934880000003771982191776801418_);}
	.st35{fill:url(#SVGID_00000029730149296100656900000007605901521426381195_);}
	.st36{fill:url(#SVGID_00000068647801752847052740000016331960402875547292_);}
	.st37{fill:url(#SVGID_00000165212898119823430400000011265257769451530388_);}
	.st38{fill:url(#SVGID_00000172400297603816304070000016059580903874493594_);}
	.st39{fill:url(#SVGID_00000003816626145272013020000013252714986142259121_);}
	.st40{fill:url(#SVGID_00000022521214365252781700000005678619581432227971_);}
	.st41{fill:url(#SVGID_00000183228324432501811890000012237677298390233219_);}
	.st42{fill:url(#SVGID_00000036945861572809957400000005539105116422057373_);}
	.st43{fill:url(#SVGID_00000176739787637024611040000006454916029624061073_);}
</style>
<g>
	<g>
		<g>
			<g>
				<g>
					<linearGradient id="SVGID_1_" gradientUnits="userSpaceOnUse" x1="63.5225" y1="-43.0047" x2="371.2576" y2="264.7304">
						<stop  offset="0" style="stop-color:#F7F7F7"/>
						<stop  offset="1" style="stop-color:#C0CDD3"/>
					</linearGradient>
					<path class="st0" d="M208.07,80.52h-28.15V61.91c0-2.56-2.07-4.63-4.63-4.63s-4.63,2.07-4.63,4.63v23.24
						c0,2.56,2.07,4.63,4.63,4.63h32.78c2.56,0,4.63-2.07,4.63-4.63C212.7,82.6,210.63,80.52,208.07,80.52z"/>
					<g>
						
							<linearGradient id="SVGID_00000103966991238465596570000015889061711400277170_" gradientUnits="userSpaceOnUse" x1="48.1365" y1="-27.6187" x2="355.8716" y2="280.1164">
							<stop  offset="0" style="stop-color:#F7F7F7"/>
							<stop  offset="1" style="stop-color:#C0CDD3"/>
						</linearGradient>
						<path style="fill:url(#SVGID_00000103966991238465596570000015889061711400277170_);" d="M175.29,27.65
							c-10.89,0-21.07,3.05-29.74,8.34H130.1c-2.59,0-4.7,2.1-4.7,4.7c0,2.59,2.1,4.7,4.7,4.7h16.3l-16.96,5.25
							c-2.48,3.32-4.61,6.93-6.33,10.76H102.5c-2.59,0-4.7,2.1-4.7,4.7c0,2.59,2.1,4.7,4.7,4.7h26.8l-10.34,4.09
							c-0.56,3.24-0.87,6.57-0.87,9.96c0,0.69,0.02,1.38,0.04,2.06h-12.27c-2.59,0-4.7,2.1-4.7,4.7c0,1.29,0.53,2.47,1.37,3.32
							c0.85,0.84,2.03,1.37,3.32,1.37h22.6l-8.32,3.71c1.16,4.26,2.82,8.32,4.89,12.13h-21.38c-2.59,0-4.7,2.1-4.7,4.7
							s2.1,4.7,4.7,4.7h36.66l-6.64,2.54c1.69,1.8,3.5,3.48,5.42,5.05c-0.12-0.01-0.25-0.02-0.37-0.04l32.59,34.33
							c0.33,0.35,0.71,0.64,1.1,0.87c1.98,1.59,4.89,1.42,6.67-0.45l35.67-37.58l0.03-0.03c1.37-1.31,2.68-2.69,3.93-4.13l0.46-0.48
							c0.25-0.26,0.47-0.55,0.64-0.85c7.93-9.81,12.68-22.31,12.68-35.9C232.49,53.25,206.88,27.65,175.29,27.65z M175.4,153.35
							l-11.9-12.53l-19.16-20.19l-0.04-0.03l-5.51-5.8c-0.15-0.16-0.31-0.3-0.48-0.44c-6.47-8.09-10.33-18.35-10.33-29.51
							c0-26.13,21.19-47.31,47.32-47.31c26.14,0,47.32,21.18,47.32,47.31c0,11.66-4.22,22.34-11.22,30.59l-3.7,3.9l-20.34,21.42
							L175.4,153.35z"/>
						
							<linearGradient id="SVGID_00000010285451831621620890000011137629549631874495_" gradientUnits="userSpaceOnUse" x1="14.3488" y1="6.169" x2="322.0839" y2="313.9041">
							<stop  offset="0" style="stop-color:#F7F7F7"/>
							<stop  offset="1" style="stop-color:#C0CDD3"/>
						</linearGradient>
						<path style="fill:url(#SVGID_00000010285451831621620890000011137629549631874495_);" d="M86.55,66.02L86.55,66.02
							c0-2.56-2.07-4.63-4.63-4.63H66.48c-2.56,0-4.63,2.07-4.63,4.63v0c0,2.56,2.07,4.63,4.63,4.63h15.44
							C84.48,70.65,86.55,68.58,86.55,66.02z"/>
						
							<linearGradient id="SVGID_00000129203095188851091460000018204419014483390376_" gradientUnits="userSpaceOnUse" x1="42.2995" y1="-21.7817" x2="350.0346" y2="285.9534">
							<stop  offset="0" style="stop-color:#F7F7F7"/>
							<stop  offset="1" style="stop-color:#C0CDD3"/>
						</linearGradient>
						<path style="fill:url(#SVGID_00000129203095188851091460000018204419014483390376_);" d="M117.07,40.64L117.07,40.64
							c0-2.56-2.07-4.63-4.63-4.63H97c-2.56,0-4.63,2.07-4.63,4.63v0c0,2.56,2.07,4.63,4.63,4.63h15.44
							C114.99,45.27,117.07,43.19,117.07,40.64z"/>
						
							<linearGradient id="SVGID_00000018958014660158635990000001614461895488185278_" gradientUnits="userSpaceOnUse" x1="6.0918" y1="14.426" x2="313.8269" y2="322.1611">
							<stop  offset="0" style="stop-color:#F7F7F7"/>
							<stop  offset="1" style="stop-color:#C0CDD3"/>
						</linearGradient>
						<path style="fill:url(#SVGID_00000018958014660158635990000001614461895488185278_);" d="M88.24,86.97h-9.94
							c-2.56,0-4.63,2.07-4.63,4.63c0,2.56,2.07,4.63,4.63,4.63h9.94c2.56,0,4.63-2.07,4.63-4.63
							C92.87,89.04,90.79,86.97,88.24,86.97z"/>
						
							<linearGradient id="SVGID_00000029752167488731435030000003601750922423923607_" gradientUnits="userSpaceOnUse" x1="-8.251" y1="28.7688" x2="299.4841" y2="336.5039">
							<stop  offset="0" style="stop-color:#F7F7F7"/>
							<stop  offset="1" style="stop-color:#C0CDD3"/>
						</linearGradient>
						<path style="fill:url(#SVGID_00000029752167488731435030000003601750922423923607_);" d="M83.04,112.2h-6.47
							c-2.56,0-4.63,2.07-4.63,4.63v0c0,2.56,2.07,4.63,4.63,4.63h6.47c2.56,0,4.63-2.07,4.63-4.63v0
							C87.67,114.27,85.6,112.2,83.04,112.2z"/>
					</g>
				</g>
			</g>
		</g>
	</g>
</g>
<g>
	
		<linearGradient id="SVGID_00000180350936766296747580000004297082906992768415_" gradientUnits="userSpaceOnUse" x1="257.6791" y1="73.341" x2="279.6798" y2="73.341">
		<stop  offset="0" style="stop-color:#F7F7F7"/>
		<stop  offset="1" style="stop-color:#C0CDD3"/>
	</linearGradient>
	<path style="fill:url(#SVGID_00000180350936766296747580000004297082906992768415_);" d="M276.45,58.5
		c-2.13-1.63-4.74-2.44-7.81-2.44h-10.97v34.57h10.97c3.03,0,5.61-0.81,7.77-2.44c2.16-1.65,3.26-3.63,3.26-5.94V64.44
		C279.68,62.12,278.62,60.15,276.45,58.5z M272.74,82.24c0,0.86-0.39,1.6-1.19,2.22c-0.81,0.62-1.77,0.94-2.9,0.94h-4.13V61.28h4.13
		c1.16,0,2.13,0.32,2.94,0.94c0.77,0.62,1.16,1.36,1.16,2.22V82.24z"/>
	
		<linearGradient id="SVGID_00000147201923570612928420000001152684597314290323_" gradientUnits="userSpaceOnUse" x1="284.1693" y1="76.399" x2="306.106" y2="76.399">
		<stop  offset="0" style="stop-color:#F7F7F7"/>
		<stop  offset="1" style="stop-color:#C0CDD3"/>
	</linearGradient>
	<path style="fill:url(#SVGID_00000147201923570612928420000001152684597314290323_);" d="M302.88,64.61
		c-2.13-1.63-4.71-2.44-7.74-2.44c-2.97,0-5.52,0.79-7.68,2.39c-2.19,1.8-3.29,3.82-3.29,6.12v11.44c0,2.29,1.1,4.32,3.29,6.12
		c2.16,1.6,4.71,2.39,7.68,2.39c3.03,0,5.61-0.81,7.74-2.44c2.16-1.65,3.23-3.63,3.23-5.94h-3.39c-1.68,0-3.06,0.57-4.13,1.73
		c-0.16,0.17-0.32,0.32-0.55,0.49c-0.81,0.62-1.77,0.94-2.9,0.94c-1.19,0-2.19-0.35-3-1.01c-0.74-0.64-1.13-1.38-1.13-2.19v-3.5
		h15.1v-8.14C306.11,68.24,305.04,66.26,302.88,64.61z M299.23,73.44h-8.23v-2.89c0-0.86,0.42-1.6,1.23-2.22
		c0.81-0.62,1.77-0.94,2.9-0.94c1.13,0,2.1,0.32,2.9,0.94c0.81,0.62,1.19,1.36,1.19,2.22V73.44z"/>
	
		<linearGradient id="SVGID_00000179606060730522809960000013763805554588761513_" gradientUnits="userSpaceOnUse" x1="310.5949" y1="73.341" x2="317.4336" y2="73.341">
		<stop  offset="0" style="stop-color:#F7F7F7"/>
		<stop  offset="1" style="stop-color:#C0CDD3"/>
	</linearGradient>
	<path style="fill:url(#SVGID_00000179606060730522809960000013763805554588761513_);" d="M311.98,57.11
		c-0.94,0.72-1.39,1.55-1.39,2.56v30.95h2.1c1.32,0,2.42-0.35,3.35-1.06c0.94-0.72,1.39-1.55,1.39-2.56V56.05h-2.1
		C314.01,56.05,312.92,56.4,311.98,57.11z"/>
	
		<linearGradient id="SVGID_00000152224357045348365570000005666842676662475910_" gradientUnits="userSpaceOnUse" x1="322.0496" y1="76.7935" x2="328.9208" y2="76.7935">
		<stop  offset="0" style="stop-color:#F7F7F7"/>
		<stop  offset="1" style="stop-color:#C0CDD3"/>
	</linearGradient>
	<path style="fill:url(#SVGID_00000152224357045348365570000005666842676662475910_);" d="M323.47,64.02
		c-0.94,0.72-1.42,1.58-1.42,2.59v24.02h2.1c1.32,0,2.45-0.35,3.39-1.06c0.94-0.72,1.39-1.55,1.39-2.56V62.96h-2.1
		C325.5,62.96,324.4,63.3,323.47,64.02z"/>
	
		<linearGradient id="SVGID_00000080904300802618153660000002296155560796212393_" gradientUnits="userSpaceOnUse" x1="321.9207" y1="57.2989" x2="329.0502" y2="57.2989">
		<stop  offset="0" style="stop-color:#F7F7F7"/>
		<stop  offset="1" style="stop-color:#C0CDD3"/>
	</linearGradient>
	<path style="fill:url(#SVGID_00000080904300802618153660000002296155560796212393_);" d="M328.02,55.36
		c-0.71-0.52-1.55-0.79-2.52-0.79c-1,0-1.84,0.27-2.52,0.79c-0.71,0.54-1.06,1.18-1.06,1.95c0,0.76,0.35,1.41,1.06,1.92
		c0.68,0.52,1.52,0.79,2.52,0.79c0.97,0,1.81-0.27,2.52-0.79c0.68-0.52,1.03-1.16,1.03-1.92C329.05,56.55,328.7,55.91,328.02,55.36z
		"/>
	
		<linearGradient id="SVGID_00000070091715646308921200000005493341374046731199_" gradientUnits="userSpaceOnUse" x1="333.5368" y1="76.7935" x2="357.4408" y2="76.7935">
		<stop  offset="0" style="stop-color:#F7F7F7"/>
		<stop  offset="1" style="stop-color:#C0CDD3"/>
	</linearGradient>
	<path style="fill:url(#SVGID_00000070091715646308921200000005493341374046731199_);" d="M351.28,63.8
		c-0.87,0.57-1.45,1.28-1.68,2.15l-4,16.65l-4.19-16.67c-0.23-0.86-0.77-1.58-1.65-2.15c-0.87-0.54-1.9-0.81-3.03-0.81h-3.19
		l8.39,27.67h7.45l8.06-27.67h-3.16C353.15,62.96,352.15,63.23,351.28,63.8z"/>
	
		<linearGradient id="SVGID_00000089562752800410247900000003447100781779940794_" gradientUnits="userSpaceOnUse" x1="361.9303" y1="76.399" x2="383.867" y2="76.399">
		<stop  offset="0" style="stop-color:#F7F7F7"/>
		<stop  offset="1" style="stop-color:#C0CDD3"/>
	</linearGradient>
	<path style="fill:url(#SVGID_00000089562752800410247900000003447100781779940794_);" d="M380.64,64.61
		c-2.13-1.63-4.71-2.44-7.74-2.44c-2.97,0-5.52,0.79-7.68,2.39c-2.19,1.8-3.29,3.82-3.29,6.12v11.44c0,2.29,1.1,4.32,3.29,6.12
		c2.16,1.6,4.71,2.39,7.68,2.39c3.03,0,5.61-0.81,7.74-2.44c2.16-1.65,3.23-3.63,3.23-5.94h-3.39c-1.68,0-3.06,0.57-4.13,1.73
		c-0.16,0.17-0.32,0.32-0.55,0.49c-0.81,0.62-1.77,0.94-2.9,0.94c-1.19,0-2.19-0.35-3-1.01c-0.74-0.64-1.13-1.38-1.13-2.19v-3.5
		h15.1v-8.14C383.87,68.24,382.8,66.26,380.64,64.61z M377,73.44h-8.23v-2.89c0-0.86,0.42-1.6,1.23-2.22
		c0.81-0.62,1.77-0.94,2.9-0.94c1.13,0,2.1,0.32,2.9,0.94c0.81,0.62,1.19,1.36,1.19,2.22V73.44z"/>
	
		<linearGradient id="SVGID_00000149361100940520361970000001903069547990951076_" gradientUnits="userSpaceOnUse" x1="388.3559" y1="76.7935" x2="400.6792" y2="76.7935">
		<stop  offset="0" style="stop-color:#F7F7F7"/>
		<stop  offset="1" style="stop-color:#C0CDD3"/>
	</linearGradient>
	<path style="fill:url(#SVGID_00000149361100940520361970000001903069547990951076_);" d="M393.81,89.57
		c0.94-0.72,1.39-1.55,1.39-2.56V71.34c0-0.89,0.45-1.65,1.32-2.29c0.84-0.57,1.81-0.84,2.87-0.84h1.29v-5.25h-1.36
		c-2.13,0-4.06,0.42-5.77,1.26c-0.81-0.84-1.81-1.26-3.06-1.26h-2.13v27.67h2.1C391.78,90.63,392.87,90.28,393.81,89.57z"/>
	
		<linearGradient id="SVGID_00000161610322558523492080000006129594901243872128_" gradientUnits="userSpaceOnUse" x1="405.1663" y1="81.8737" x2="429.0705" y2="81.8737">
		<stop  offset="0" style="stop-color:#F7F7F7"/>
		<stop  offset="1" style="stop-color:#C0CDD3"/>
	</linearGradient>
	<path style="fill:url(#SVGID_00000161610322558523492080000006129594901243872128_);" d="M412.91,94.38
		c-0.29,0.22-0.61,0.39-1.03,0.52c-1.48,0.47-2.32,1.31-2.48,2.47v3.06c3.03,0,5.52-0.62,7.48-1.82c1.97-1.21,3.32-3.75,4.13-7.6
		l8.06-27.67h-3.16c-1.13,0-2.13,0.27-3,0.84c-0.87,0.57-1.45,1.28-1.68,2.17l-4,17.04l-4.19-17.09c-0.23-0.86-0.77-1.58-1.65-2.15
		c-0.87-0.54-1.9-0.81-3.03-0.81h-3.19L413.55,91l0.03,0.1c0.03,0.07,0.06,0.15,0.1,0.22c0.03,0.1,0.03,0.2,0.06,0.3
		c0.03,0.12,0.03,0.2,0.03,0.27C414.13,93,413.84,93.81,412.91,94.38z"/>
	
		<linearGradient id="SVGID_00000069382525510907259610000013187915249789008268_" gradientUnits="userSpaceOnUse" x1="440.1498" y1="73.341" x2="462.3443" y2="73.341">
		<stop  offset="0" style="stop-color:#F7F7F7"/>
		<stop  offset="1" style="stop-color:#C0CDD3"/>
	</linearGradient>
	<path style="fill:url(#SVGID_00000069382525510907259610000013187915249789008268_);" d="M457.96,80.39
		c0.35-0.2,0.65-0.39,0.94-0.62c2.13-1.63,3.19-3.6,3.19-5.92v-9.42c0-2.32-1.06-4.29-3.19-5.94c-2.1-1.63-4.71-2.44-7.77-2.44
		h-10.97v34.57h2.1c1.32,0,2.42-0.35,3.35-1.06c0.94-0.72,1.39-1.55,1.39-2.56v-4.76h4.77l2.19,5.77c0.94,1.75,2.45,2.61,4.58,2.61
		h3.81L457.96,80.39z M455.22,73.86c0,0.86-0.39,1.6-1.19,2.22c-0.81,0.62-1.77,0.94-2.9,0.94h-4.13V61.28h4.13
		c1.16,0,2.13,0.32,2.94,0.94c0.77,0.62,1.16,1.36,1.16,2.22V73.86z"/>
	
		<linearGradient id="SVGID_00000118389093284528428400000006442791411452763791_" gradientUnits="userSpaceOnUse" x1="466.833" y1="76.7935" x2="488.7697" y2="76.7935">
		<stop  offset="0" style="stop-color:#F7F7F7"/>
		<stop  offset="1" style="stop-color:#C0CDD3"/>
	</linearGradient>
	<path style="fill:url(#SVGID_00000118389093284528428400000006442791411452763791_);" d="M488.77,90.63V62.96h-2.1
		c-1.32,0-2.42,0.35-3.36,1.06c-0.94,0.72-1.42,1.58-1.42,2.59v15.59c0,0.81-0.35,1.55-1.1,2.19c-0.81,0.67-1.81,1.01-3,1.01
		c-1.13,0-2.1-0.32-2.9-0.94c-0.81-0.62-1.23-1.36-1.23-2.22V66.61c0-1.01-0.45-1.87-1.39-2.59c-0.94-0.72-2.03-1.06-3.35-1.06h-2.1
		v19.16c0,2.29,1.1,4.32,3.29,6.12c2.16,1.6,4.71,2.39,7.68,2.39c2.16,0,4.06-0.39,5.74-1.21c0.81,0.81,1.84,1.21,3.03,1.21H488.77z
		"/>
	
		<linearGradient id="SVGID_00000151541822431681787190000004948302098036329382_" gradientUnits="userSpaceOnUse" x1="493.2586" y1="76.7935" x2="515.1952" y2="76.7935">
		<stop  offset="0" style="stop-color:#F7F7F7"/>
		<stop  offset="1" style="stop-color:#C0CDD3"/>
	</linearGradient>
	<path style="fill:url(#SVGID_00000151541822431681787190000004948302098036329382_);" d="M508.32,87c0,1.01,0.48,1.85,1.42,2.56
		c0.94,0.72,2.03,1.06,3.36,1.06h2.1V71.34c0-2.32-1.06-4.29-3.23-5.92c-2.13-1.65-4.71-2.47-7.74-2.47c-2.13,0-4.06,0.42-5.77,1.26
		c-0.81-0.84-1.81-1.26-3.06-1.26h-2.13v27.67h2.1c1.32,0,2.42-0.35,3.35-1.06c0.94-0.72,1.39-1.55,1.39-2.56V71.34
		c0-0.86,0.42-1.6,1.23-2.22c0.81-0.62,1.77-0.91,2.9-0.91c1.13,0,2.1,0.3,2.9,0.91c0.81,0.62,1.19,1.36,1.19,2.22V87z"/>
	
		<linearGradient id="SVGID_00000054225926986907162480000010344715471770610111_" gradientUnits="userSpaceOnUse" x1="519.684" y1="76.7935" x2="541.6207" y2="76.7935">
		<stop  offset="0" style="stop-color:#F7F7F7"/>
		<stop  offset="1" style="stop-color:#C0CDD3"/>
	</linearGradient>
	<path style="fill:url(#SVGID_00000054225926986907162480000010344715471770610111_);" d="M541.62,90.63V71.34
		c0-2.32-1.06-4.29-3.23-5.92c-2.13-1.65-4.71-2.47-7.74-2.47c-2.13,0-4.06,0.42-5.77,1.26c-0.81-0.84-1.81-1.26-3.06-1.26h-2.13
		v27.67h2.1c1.32,0,2.42-0.35,3.35-1.06c0.94-0.72,1.39-1.55,1.39-2.56V71.34c0-0.86,0.42-1.6,1.23-2.22
		c0.81-0.62,1.77-0.91,2.9-0.91c1.13,0,2.1,0.3,2.9,0.91c0.81,0.62,1.19,1.36,1.19,2.22V87c0,1.01,0.48,1.85,1.42,2.56
		c0.94,0.72,2.03,1.06,3.36,1.06H541.62z"/>
	
		<linearGradient id="SVGID_00000085219720488310383140000002268398618085067153_" gradientUnits="userSpaceOnUse" x1="546.1095" y1="76.399" x2="568.0463" y2="76.399">
		<stop  offset="0" style="stop-color:#F7F7F7"/>
		<stop  offset="1" style="stop-color:#C0CDD3"/>
	</linearGradient>
	<path style="fill:url(#SVGID_00000085219720488310383140000002268398618085067153_);" d="M564.82,64.61
		c-2.13-1.63-4.71-2.44-7.74-2.44c-2.97,0-5.52,0.79-7.68,2.39c-2.19,1.8-3.29,3.82-3.29,6.12v11.44c0,2.29,1.1,4.32,3.29,6.12
		c2.16,1.6,4.71,2.39,7.68,2.39c3.03,0,5.61-0.81,7.74-2.44c2.16-1.65,3.23-3.63,3.23-5.94h-3.39c-1.68,0-3.06,0.57-4.13,1.73
		c-0.16,0.17-0.32,0.32-0.55,0.49c-0.81,0.62-1.77,0.94-2.9,0.94c-1.19,0-2.19-0.35-3-1.01c-0.74-0.64-1.13-1.38-1.13-2.19v-3.5
		h15.1v-8.14C568.05,68.24,566.98,66.26,564.82,64.61z M561.17,73.44h-8.23v-2.89c0-0.86,0.42-1.6,1.23-2.22
		c0.81-0.62,1.77-0.94,2.9-0.94c1.13,0,2.1,0.32,2.9,0.94c0.81,0.62,1.19,1.36,1.19,2.22V73.44z"/>
	
		<linearGradient id="SVGID_00000164487674773393535910000000515386582018181504_" gradientUnits="userSpaceOnUse" x1="572.535" y1="76.7935" x2="584.8585" y2="76.7935">
		<stop  offset="0" style="stop-color:#F7F7F7"/>
		<stop  offset="1" style="stop-color:#C0CDD3"/>
	</linearGradient>
	<path style="fill:url(#SVGID_00000164487674773393535910000000515386582018181504_);" d="M577.73,64.22
		c-0.81-0.84-1.81-1.26-3.06-1.26h-2.13v27.67h2.1c1.32,0,2.42-0.35,3.35-1.06c0.94-0.72,1.39-1.55,1.39-2.56V71.34
		c0-0.89,0.45-1.65,1.32-2.29c0.84-0.57,1.81-0.84,2.87-0.84h1.29v-5.25h-1.36C581.37,62.96,579.44,63.38,577.73,64.22z"/>
	
		<linearGradient id="SVGID_00000096041730110348956840000012960172662538693041_" gradientUnits="userSpaceOnUse" x1="589.3461" y1="76.7935" x2="611.2828" y2="76.7935">
		<stop  offset="0" style="stop-color:#F7F7F7"/>
		<stop  offset="1" style="stop-color:#C0CDD3"/>
	</linearGradient>
	<path style="fill:url(#SVGID_00000096041730110348956840000012960172662538693041_);" d="M603.73,75.54
		c-5.03-1.5-7.55-3.03-7.55-4.56v-0.05c0-0.86,0.42-1.53,1.23-2c0.74-0.44,1.65-0.69,2.68-0.72c1.19-0.02,2.19,0.25,3.06,0.86
		c0.23,0.17,0.45,0.35,0.61,0.54c1.03,1.16,2.36,1.73,4,1.73h3.52c0-2.32-1.06-4.29-3.23-5.92c-2.13-1.65-4.71-2.47-7.74-2.47
		c-3,0-5.58,0.74-7.74,2.24c-2.16,1.5-3.23,3.4-3.23,5.72c0,3.33,2.52,5.87,7.55,7.62c5,1.75,7.52,3.26,7.52,4.54
		c0,0.86-0.39,1.48-1.19,1.8c-0.81,0.35-1.77,0.52-2.9,0.52c-1.13,0-2.1-0.32-2.9-0.94c-0.29-0.2-0.52-0.42-0.68-0.64
		c-0.84-1.06-1.97-1.58-3.39-1.58h-4c0,2.32,1.06,4.29,3.23,5.94c2.16,1.63,4.74,2.44,7.74,2.44c3.03,0,5.61-0.67,7.74-2.02
		c2.16-1.36,3.23-3.21,3.23-5.52C611.28,79.56,608.77,77.04,603.73,75.54z"/>
	
		<linearGradient id="SVGID_00000078748709194729906350000004961501532404663732_" gradientUnits="userSpaceOnUse" x1="306.5321" y1="124.3537" x2="316.1906" y2="124.3537">
		<stop  offset="0" style="stop-color:#F7F7F7"/>
		<stop  offset="1" style="stop-color:#C0CDD3"/>
	</linearGradient>
	<polygon style="fill:url(#SVGID_00000078748709194729906350000004961501532404663732_);" points="306.53,132.87 308.01,132.87 
		308.01,125.02 314.97,125.02 314.97,123.76 308.01,123.76 308.01,117.1 316.19,117.1 316.19,115.84 306.53,115.84 	"/>
	
		<linearGradient id="SVGID_00000112609875322911301100000015964548584308950693_" gradientUnits="userSpaceOnUse" x1="319.0522" y1="126.9409" x2="328.0663" y2="126.9409">
		<stop  offset="0" style="stop-color:#F7F7F7"/>
		<stop  offset="1" style="stop-color:#C0CDD3"/>
	</linearGradient>
	<path style="fill:url(#SVGID_00000112609875322911301100000015964548584308950693_);" d="M327.54,122.4
		c-0.67-1.06-1.88-1.6-3.62-1.6c-1.81,0-3.19,0.54-4.13,1.62l0.98,0.79c0.76-0.81,1.77-1.22,3.03-1.22c1.13,0,1.92,0.31,2.38,0.93
		c0.32,0.43,0.48,1.13,0.48,2.1v1.03h-3.08c-1.57,0-2.7,0.23-3.39,0.69c-0.76,0.51-1.14,1.47-1.14,2.89c0,1.19,0.27,2.05,0.81,2.58
		c0.62,0.59,1.75,0.88,3.39,0.88c0.94,0,1.67-0.08,2.19-0.25c0.52-0.17,0.98-0.46,1.36-0.87l0.12,0.91h1.14v-7.65
		c0-0.73-0.04-1.3-0.11-1.71C327.89,123.1,327.75,122.73,327.54,122.4z M326.66,129.29c0,0.83-0.12,1.4-0.36,1.72
		c-0.45,0.57-1.37,0.86-2.77,0.86c-1.08,0-1.85-0.14-2.31-0.43c-0.53-0.32-0.79-0.92-0.79-1.81c0-0.84,0.21-1.45,0.64-1.84
		c0.49-0.41,1.36-0.62,2.6-0.62h2.98V129.29z"/>
	
		<linearGradient id="SVGID_00000146485001434228618710000011513936885328957368_" gradientUnits="userSpaceOnUse" x1="332.7641" y1="126.9409" x2="341.8976" y2="126.9409">
		<stop  offset="0" style="stop-color:#F7F7F7"/>
		<stop  offset="1" style="stop-color:#C0CDD3"/>
	</linearGradient>
	<path style="fill:url(#SVGID_00000146485001434228618710000011513936885328957368_);" d="M340.85,127.14
		c-0.3-0.24-0.68-0.43-1.14-0.56c-0.46-0.13-1.14-0.27-2.03-0.39c-1-0.14-1.68-0.32-2.03-0.52c-0.54-0.32-0.81-0.83-0.81-1.55
		c0-0.64,0.18-1.14,0.55-1.5c0.43-0.41,1.07-0.62,1.93-0.62c0.67,0,1.23,0.1,1.68,0.29c0.45,0.19,0.87,0.5,1.25,0.93l1.1-0.69
		c-0.91-1.14-2.29-1.72-4.15-1.72c-1.11,0-1.99,0.26-2.65,0.76c-0.75,0.59-1.12,1.46-1.12,2.62c0,0.95,0.31,1.7,0.93,2.24
		c0.29,0.25,0.64,0.45,1.05,0.58c0.41,0.14,1.04,0.27,1.88,0.39c1.13,0.16,1.9,0.35,2.31,0.57c0.59,0.32,0.88,0.87,0.88,1.67
		c0,1.48-1.1,2.22-3.29,2.22c-0.79,0-1.45-0.09-1.98-0.26c-0.52-0.17-1-0.48-1.43-0.91l-1.03,0.74c0.87,1.1,2.37,1.65,4.48,1.65
		c3.1,0,4.65-1.13,4.65-3.39C341.9,128.5,341.55,127.65,340.85,127.14z"/>
	
		<linearGradient id="SVGID_00000181048200690972063180000015106088277586387373_" gradientUnits="userSpaceOnUse" x1="345.9977" y1="124.9738" x2="351.3398" y2="124.9738">
		<stop  offset="0" style="stop-color:#F7F7F7"/>
		<stop  offset="1" style="stop-color:#C0CDD3"/>
	</linearGradient>
	<path style="fill:url(#SVGID_00000181048200690972063180000015106088277586387373_);" d="M349.33,131.2
		c-0.28-0.3-0.42-0.86-0.42-1.67v-7.32h2.31v-1.19h-2.31v-3.93h-1.38l-0.05,3.93H346v1.19h1.48v7.2c0,1.29,0.2,2.17,0.6,2.65
		c0.44,0.54,1.38,0.81,2.81,0.81h0.45v-1.22h-0.45C350.12,131.65,349.6,131.5,349.33,131.2z"/>
	
		<linearGradient id="SVGID_00000091736271493449793800000001907124460083495345_" gradientUnits="userSpaceOnUse" x1="363.0246" y1="124.4729" x2="376.8557" y2="124.4729">
		<stop  offset="0" style="stop-color:#F7F7F7"/>
		<stop  offset="1" style="stop-color:#C0CDD3"/>
	</linearGradient>
	<path style="fill:url(#SVGID_00000091736271493449793800000001907124460083495345_);" d="M375.4,125.21
		c-0.37,1.37-0.98,2.62-1.84,3.74l-3.67-5.01c1.3-0.84,2.23-1.61,2.79-2.29c0.64-0.76,0.95-1.63,0.95-2.6c0-1.03-0.33-1.88-1-2.55
		c-0.76-0.78-1.81-1.17-3.15-1.17c-1.11,0-2.03,0.29-2.74,0.86c-0.84,0.68-1.26,1.6-1.26,2.74c0,0.6,0.14,1.17,0.41,1.71
		c0.27,0.53,0.91,1.5,1.93,2.9c-1.11,0.62-1.94,1.13-2.48,1.53c-1.54,1.18-2.31,2.58-2.31,4.22c0,1.24,0.36,2.24,1.07,3
		c0.81,0.87,1.96,1.31,3.46,1.31c0.95,0,1.93-0.21,2.93-0.64c1.14-0.51,2.13-1.21,2.96-2.1l1.48,2h1.74l-2.24-2.91
		c1.08-1.37,1.89-2.95,2.43-4.75H375.4z M367.21,120.22c-0.2-0.37-0.3-0.8-0.3-1.28c0-0.67,0.21-1.22,0.64-1.65
		c0.48-0.49,1.14-0.74,1.98-0.74c0.75,0,1.36,0.2,1.84,0.6c0.56,0.48,0.83,1.13,0.83,1.96c0,0.68-0.25,1.32-0.74,1.91
		c-0.49,0.59-1.3,1.22-2.43,1.88C368.02,121.48,367.41,120.59,367.21,120.22z M367.77,132.34c-0.94,0-1.69-0.24-2.27-0.72
		c-0.67-0.56-1-1.34-1-2.34c0-1.32,0.65-2.42,1.96-3.31c0.48-0.35,1.22-0.81,2.24-1.38l3.93,5.32
		C371.08,131.53,369.45,132.34,367.77,132.34z"/>
	
		<linearGradient id="SVGID_00000082330527876823399160000003479222910897480332_" gradientUnits="userSpaceOnUse" x1="390.162" y1="124.3537" x2="401.1079" y2="124.3537">
		<stop  offset="0" style="stop-color:#F7F7F7"/>
		<stop  offset="1" style="stop-color:#C0CDD3"/>
	</linearGradient>
	<path style="fill:url(#SVGID_00000082330527876823399160000003479222910897480332_);" d="M400.99,120.51c0-1.48-0.4-2.62-1.22-3.43
		c-0.43-0.45-0.95-0.76-1.57-0.95c-0.62-0.19-1.42-0.29-2.38-0.29h-5.65v17.03h1.48v-7.56h4.24l3.58,7.56h1.65l-3.77-7.73
		C399.77,124.81,400.99,123.26,400.99,120.51z M391.62,124.07v-6.99h4.08c2.53,0,3.79,1.17,3.79,3.51c0,2.32-1.18,3.48-3.53,3.48
		H391.62z"/>
	
		<linearGradient id="SVGID_00000081649256580343352200000008302478253062813844_" gradientUnits="userSpaceOnUse" x1="406.5683" y1="116.9376" x2="407.9994" y2="116.9376">
		<stop  offset="0" style="stop-color:#F7F7F7"/>
		<stop  offset="1" style="stop-color:#C0CDD3"/>
	</linearGradient>
	
		<rect x="406.57" y="115.79" style="fill:url(#SVGID_00000081649256580343352200000008302478253062813844_);" width="1.43" height="2.29"/>
	
		<linearGradient id="SVGID_00000052069430724893156580000009367741121706420892_" gradientUnits="userSpaceOnUse" x1="406.5683" y1="126.9409" x2="407.9994" y2="126.9409">
		<stop  offset="0" style="stop-color:#F7F7F7"/>
		<stop  offset="1" style="stop-color:#C0CDD3"/>
	</linearGradient>
	
		<rect x="406.57" y="121.01" style="fill:url(#SVGID_00000052069430724893156580000009367741121706420892_);" width="1.43" height="11.85"/>
	
		<linearGradient id="SVGID_00000027590279682630410310000007422930249223295665_" gradientUnits="userSpaceOnUse" x1="413.4843" y1="129.6119" x2="422.8324" y2="129.6119">
		<stop  offset="0" style="stop-color:#F7F7F7"/>
		<stop  offset="1" style="stop-color:#C0CDD3"/>
	</linearGradient>
	<path style="fill:url(#SVGID_00000027590279682630410310000007422930249223295665_);" d="M421.59,122.49
		c-0.41-0.6-0.91-1.04-1.49-1.3c-0.58-0.26-1.32-0.39-2.21-0.39c-2.94,0-4.41,1.74-4.41,5.22v1.81c0,3.5,1.46,5.25,4.39,5.25
		c1.65,0,2.84-0.53,3.55-1.6v1.67c-0.03,2.73-1.22,4.1-3.58,4.1c-1.22,0-2.18-0.4-2.86-1.19l-1.07,0.69
		c0.86,1.11,2.19,1.67,3.98,1.67c3.29,0,4.94-1.8,4.94-5.41v-12h-1.14L421.59,122.49z M421.43,127.81c0,2.7-1.11,4.05-3.31,4.05
		c-2.13,0-3.2-1.36-3.2-4.08v-1.69c0-2.73,1.06-4.1,3.2-4.1c1.16,0,2.02,0.4,2.58,1.19c0.25,0.35,0.43,0.74,0.54,1.16
		c0.1,0.42,0.17,1,0.2,1.73V127.81z"/>
	
		<linearGradient id="SVGID_00000015313490401540160710000015170052163067738033_" gradientUnits="userSpaceOnUse" x1="428.6994" y1="124.3537" x2="437.7357" y2="124.3537">
		<stop  offset="0" style="stop-color:#F7F7F7"/>
		<stop  offset="1" style="stop-color:#C0CDD3"/>
	</linearGradient>
	<path style="fill:url(#SVGID_00000015313490401540160710000015170052163067738033_);" d="M433.54,120.8
		c-0.81,0-1.48,0.12-2.01,0.37c-0.53,0.25-1,0.65-1.4,1.2v-6.53h-1.43v17.03h1.43v-6.06c0-1.59,0.21-2.76,0.64-3.51
		c0.49-0.84,1.34-1.26,2.53-1.26c0.99,0,1.72,0.28,2.19,0.84c0.54,0.64,0.81,1.73,0.81,3.29v6.7h1.43v-6.82
		c0-1.33-0.13-2.32-0.38-2.96C436.77,121.56,435.5,120.8,433.54,120.8z"/>
	
		<linearGradient id="SVGID_00000100365808465455830760000012381995285512084655_" gradientUnits="userSpaceOnUse" x1="442.4816" y1="124.9738" x2="447.8244" y2="124.9738">
		<stop  offset="0" style="stop-color:#F7F7F7"/>
		<stop  offset="1" style="stop-color:#C0CDD3"/>
	</linearGradient>
	<path style="fill:url(#SVGID_00000100365808465455830760000012381995285512084655_);" d="M445.81,131.2
		c-0.28-0.3-0.42-0.86-0.42-1.67v-7.32h2.31v-1.19h-2.31v-3.93h-1.38l-0.05,3.93h-1.48v1.19h1.48v7.2c0,1.29,0.2,2.17,0.6,2.65
		c0.45,0.54,1.38,0.81,2.82,0.81h0.45v-1.22h-0.45C446.61,131.65,446.09,131.5,445.81,131.2z"/>
	
		<linearGradient id="SVGID_00000165951133626333133050000007708128773764943288_" gradientUnits="userSpaceOnUse" x1="459.4136" y1="124.3537" x2="470.74" y2="124.3537">
		<stop  offset="0" style="stop-color:#F7F7F7"/>
		<stop  offset="1" style="stop-color:#C0CDD3"/>
	</linearGradient>
	<path style="fill:url(#SVGID_00000165951133626333133050000007708128773764943288_);" d="M468.81,117.06
		c-0.97-0.81-2.35-1.22-4.13-1.22h-5.27v17.03h5.27c1.78,0,3.15-0.41,4.13-1.22c0.7-0.59,1.2-1.28,1.49-2.07
		c0.29-0.79,0.44-1.84,0.44-3.15v-4.15c0-1.3-0.15-2.36-0.44-3.16C470,118.32,469.51,117.63,468.81,117.06z M469.26,126.26
		c0,1.05-0.11,1.92-0.33,2.6c-0.22,0.68-0.59,1.26-1.1,1.74c-0.73,0.68-1.85,1.03-3.36,1.03h-3.58v-14.55h3.58
		c1.51,0,2.63,0.34,3.36,1.03c0.51,0.48,0.87,1.05,1.1,1.73c0.22,0.68,0.33,1.55,0.33,2.61V126.26z"/>
	
		<linearGradient id="SVGID_00000116917830213368607250000004044754069118969499_" gradientUnits="userSpaceOnUse" x1="476.6305" y1="116.9376" x2="478.0609" y2="116.9376">
		<stop  offset="0" style="stop-color:#F7F7F7"/>
		<stop  offset="1" style="stop-color:#C0CDD3"/>
	</linearGradient>
	
		<rect x="476.63" y="115.79" style="fill:url(#SVGID_00000116917830213368607250000004044754069118969499_);" width="1.43" height="2.29"/>
	
		<linearGradient id="SVGID_00000109734056012906515350000001505285853594216583_" gradientUnits="userSpaceOnUse" x1="476.6305" y1="126.9409" x2="478.0609" y2="126.9409">
		<stop  offset="0" style="stop-color:#F7F7F7"/>
		<stop  offset="1" style="stop-color:#C0CDD3"/>
	</linearGradient>
	
		<rect x="476.63" y="121.01" style="fill:url(#SVGID_00000109734056012906515350000001505285853594216583_);" width="1.43" height="11.85"/>
	
		<linearGradient id="SVGID_00000059281356029334695520000007056445327119698329_" gradientUnits="userSpaceOnUse" x1="483.9989" y1="126.8336" x2="490.4611" y2="126.8336">
		<stop  offset="0" style="stop-color:#F7F7F7"/>
		<stop  offset="1" style="stop-color:#C0CDD3"/>
	</linearGradient>
	<path style="fill:url(#SVGID_00000059281356029334695520000007056445327119698329_);" d="M485.29,122.54l-0.14-1.53H484v11.85h1.43
		v-5.82c0-1.64,0.18-2.85,0.55-3.62c0.43-0.91,1.16-1.36,2.19-1.36c0.56,0,1.12,0.18,1.69,0.52l0.6-1.24
		c-0.7-0.37-1.41-0.55-2.15-0.55C486.9,120.8,485.89,121.38,485.29,122.54z"/>
	
		<linearGradient id="SVGID_00000122699231198976388800000013713460580830366624_" gradientUnits="userSpaceOnUse" x1="493.966" y1="126.9409" x2="503.3852" y2="126.9409">
		<stop  offset="0" style="stop-color:#F7F7F7"/>
		<stop  offset="1" style="stop-color:#C0CDD3"/>
	</linearGradient>
	<path style="fill:url(#SVGID_00000122699231198976388800000013713460580830366624_);" d="M498.64,120.8
		c-3.11,0-4.67,1.88-4.67,5.63v1.07c0,3.72,1.66,5.58,4.98,5.58c1.81,0,3.15-0.56,4.01-1.67l-1.07-0.69
		c-0.65,0.76-1.6,1.14-2.84,1.14c-1.11,0-1.97-0.3-2.58-0.91c-0.72-0.72-1.07-1.79-1.07-3.22v-0.62h7.99v-0.69
		c0-1.8-0.33-3.16-1-4.08C501.62,121.32,500.37,120.8,498.64,120.8z M502,126.02h-6.61v-0.14c0-1.18,0.25-2.09,0.74-2.74
		c0.56-0.76,1.41-1.14,2.55-1.14c1.19,0,2.06,0.39,2.6,1.17c0.48,0.67,0.72,1.57,0.72,2.7V126.02z"/>
	
		<linearGradient id="SVGID_00000096750899272419059480000001906103074897822111_" gradientUnits="userSpaceOnUse" x1="508.2985" y1="126.9409" x2="516.8842" y2="126.9409">
		<stop  offset="0" style="stop-color:#F7F7F7"/>
		<stop  offset="1" style="stop-color:#C0CDD3"/>
	</linearGradient>
	<path style="fill:url(#SVGID_00000096750899272419059480000001906103074897822111_);" d="M513.07,131.87c-1.02,0-1.8-0.3-2.36-0.91
		c-0.65-0.68-0.98-1.73-0.98-3.15v-1.34c0-1.41,0.23-2.49,0.69-3.22c0.54-0.84,1.41-1.26,2.62-1.26c0.57,0,1.05,0.09,1.42,0.27
		c0.37,0.18,0.73,0.5,1.06,0.94l1.12-0.64c-0.76-1.18-2-1.77-3.7-1.77c-3.1,0-4.65,1.92-4.65,5.75v1.1c0,3.62,1.57,5.44,4.72,5.44
		c1.72,0,3-0.56,3.86-1.69l-1.07-0.67C515.16,131.48,514.24,131.87,513.07,131.87z"/>
	
		<linearGradient id="SVGID_00000163770129782720982560000005097021867807645063_" gradientUnits="userSpaceOnUse" x1="520.9843" y1="124.9738" x2="526.327" y2="124.9738">
		<stop  offset="0" style="stop-color:#F7F7F7"/>
		<stop  offset="1" style="stop-color:#C0CDD3"/>
	</linearGradient>
	<path style="fill:url(#SVGID_00000163770129782720982560000005097021867807645063_);" d="M524.31,131.2
		c-0.28-0.3-0.42-0.86-0.42-1.67v-7.32h2.31v-1.19h-2.31v-3.93h-1.38l-0.05,3.93h-1.48v1.19h1.48v7.2c0,1.29,0.2,2.17,0.6,2.65
		c0.45,0.54,1.38,0.81,2.82,0.81h0.45v-1.22h-0.45C525.11,131.65,524.59,131.5,524.31,131.2z"/>
	
		<linearGradient id="SVGID_00000150088483941916743050000005453224204460224958_" gradientUnits="userSpaceOnUse" x1="531.3334" y1="116.9376" x2="532.7638" y2="116.9376">
		<stop  offset="0" style="stop-color:#F7F7F7"/>
		<stop  offset="1" style="stop-color:#C0CDD3"/>
	</linearGradient>
	
		<rect x="531.33" y="115.79" style="fill:url(#SVGID_00000150088483941916743050000005453224204460224958_);" width="1.43" height="2.29"/>
	
		<linearGradient id="SVGID_00000063612607718144349840000001196731461845988012_" gradientUnits="userSpaceOnUse" x1="531.3334" y1="126.9409" x2="532.7638" y2="126.9409">
		<stop  offset="0" style="stop-color:#F7F7F7"/>
		<stop  offset="1" style="stop-color:#C0CDD3"/>
	</linearGradient>
	
		<rect x="531.33" y="121.01" style="fill:url(#SVGID_00000063612607718144349840000001196731461845988012_);" width="1.43" height="11.85"/>
	
		<linearGradient id="SVGID_00000041990104017606457250000006183611882881685666_" gradientUnits="userSpaceOnUse" x1="538.2723" y1="126.9409" x2="547.8589" y2="126.9409">
		<stop  offset="0" style="stop-color:#F7F7F7"/>
		<stop  offset="1" style="stop-color:#C0CDD3"/>
	</linearGradient>
	<path style="fill:url(#SVGID_00000041990104017606457250000006183611882881685666_);" d="M543.07,120.8c-3.2,0-4.79,1.74-4.79,5.22
		v1.84c0,3.48,1.59,5.22,4.77,5.22c1.51,0,2.66-0.37,3.46-1.12c0.91-0.86,1.36-2.23,1.36-4.1v-1.84
		C547.86,122.54,546.26,120.8,543.07,120.8z M546.43,127.81c0,2.7-1.12,4.05-3.36,4.05c-1.07,0-1.87-0.28-2.41-0.83
		c-0.6-0.64-0.92-1.71-0.95-3.22v-1.72c0-2.73,1.12-4.1,3.36-4.1s3.36,1.37,3.36,4.1V127.81z"/>
	
		<linearGradient id="SVGID_00000025432062797715463470000011730571579258369212_" gradientUnits="userSpaceOnUse" x1="553.3927" y1="126.8336" x2="562.4298" y2="126.8336">
		<stop  offset="0" style="stop-color:#F7F7F7"/>
		<stop  offset="1" style="stop-color:#C0CDD3"/>
	</linearGradient>
	<path style="fill:url(#SVGID_00000025432062797715463470000011730571579258369212_);" d="M558.14,120.8c-1.67,0-2.83,0.6-3.48,1.81
		l-0.14-1.6h-1.12v11.85h1.43v-5.99c0-1.62,0.21-2.81,0.64-3.55c0.48-0.86,1.32-1.29,2.53-1.29c1.3,0,2.19,0.53,2.65,1.6
		c0.24,0.56,0.36,1.4,0.36,2.53v6.7h1.43v-6.82c0-1.33-0.13-2.32-0.38-2.96C561.46,121.56,560.16,120.8,558.14,120.8z"/>
</g>
</svg>
