<?xml version="1.0" encoding="utf-8"?>
<!-- Generator: Adobe Illustrator 26.5.0, SVG Export Plug-In . SVG Version: 6.00 Build 0)  -->
<svg version="1.1" id="Layer_1" xmlns="http://www.w3.org/2000/svg" xmlns:xlink="http://www.w3.org/1999/xlink" x="0px" y="0px"
	 viewBox="0 0 598.14 174.44" style="enable-background:new 0 0 598.14 174.44;" xml:space="preserve">
<style type="text/css">
	.st0{fill:url(#SVGID_1_);}
	.st1{fill:url(#SVGID_00000119089676425770101590000006683094347889041576_);}
	.st2{fill:url(#SVGID_00000113352630707323074010000014451684813005822892_);}
	.st3{fill:url(#SVGID_00000098201095322106035720000018395643671816076160_);}
	.st4{fill:url(#SVGID_00000173137104395757958460000012890326368495396257_);}
	.st5{fill:url(#SVGID_00000134233806162121379840000007116748076204673680_);}
	.st6{fill:url(#SVGID_00000145749708617030763530000017175929547057011628_);}
	.st7{fill:url(#SVGID_00000179645376609069668050000008205750509831253391_);}
	.st8{fill:url(#SVGID_00000168831501952578089440000011179164134030088341_);}
	.st9{fill:url(#SVGID_00000147919670067930659360000011275102804034732184_);}
	.st10{fill:url(#SVGID_00000095300702954301268930000000748498168116573830_);}
	.st11{fill:url(#SVGID_00000035512346505095977040000014741283668965014427_);}
	.st12{fill:url(#SVGID_00000101817169877028049900000000339414912100652193_);}
	.st13{fill:url(#SVGID_00000114041996100540008040000002846967176042349197_);}
	.st14{fill:url(#SVGID_00000061465285700992163200000005748326779619534011_);}
	.st15{fill:url(#SVGID_00000116215186320267385310000016731617486750998202_);}
	.st16{fill:url(#SVGID_00000110433941433030746850000011501546386193269416_);}
	.st17{fill:url(#SVGID_00000123438981666450072160000015366591287295811499_);}
	.st18{fill:url(#SVGID_00000059294832693871804800000011268658913360566163_);}
	.st19{fill:url(#SVGID_00000145046853827680370570000003798461801134197911_);}
	.st20{fill:url(#SVGID_00000004527743721010579730000012558012242221283774_);}
	.st21{fill:url(#SVGID_00000010299155089943059070000000841413850966311080_);}
	.st22{fill:url(#SVGID_00000165914463129620144470000003431972518345267133_);}
	.st23{fill:url(#SVGID_00000114762229380788437480000016759447563071587245_);}
	.st24{fill:url(#SVGID_00000121961202697280946760000015440601638353744550_);}
	.st25{fill:url(#SVGID_00000065780637451081266190000013704848786657495986_);}
	.st26{fill:url(#SVGID_00000154405356218213597500000016879138438961204362_);}
	.st27{fill:url(#SVGID_00000106148971668702789790000016490621200267988916_);}
	.st28{fill:url(#SVGID_00000073704542316867310650000015500615649116326307_);}
	.st29{fill:url(#SVGID_00000181777413135465332120000001632957756041653169_);}
	.st30{fill:url(#SVGID_00000118385841911320885080000017614609260547429031_);}
	.st31{fill:url(#SVGID_00000081610085762119866850000011917060457217133247_);}
	.st32{fill:url(#SVGID_00000074412882094859785030000009919321688758903186_);}
	.st33{fill:url(#SVGID_00000048495103337611363290000003052627883209058697_);}
	.st34{fill:url(#SVGID_00000065055760495379574280000002465995634082872978_);}
	.st35{fill:url(#SVGID_00000145775024613276958110000009091729067683404458_);}
	.st36{fill:url(#SVGID_00000031191486479152055510000004380927608597505408_);}
	.st37{fill:url(#SVGID_00000084516695152937991770000005327290437973312128_);}
	.st38{fill:url(#SVGID_00000117649018316146710940000006534831101441442962_);}
	.st39{fill:url(#SVGID_00000071532783531418534680000016983173686648449702_);}
	.st40{fill:url(#SVGID_00000011729114088613683810000007934799003052739208_);}
	.st41{fill:url(#SVGID_00000008840075201205139260000006607797669892977597_);}
	.st42{fill:url(#SVGID_00000101096335891735589610000003048916139247106727_);}
	.st43{fill:url(#SVGID_00000177470662722457811090000003429784152052674951_);}
</style>
<g>
	<g>
		<g>
			<g>
				<g>
					<linearGradient id="SVGID_1_" gradientUnits="userSpaceOnUse" x1="26.5097" y1="-52.8793" x2="334.2448" y2="254.8558">
						<stop  offset="0" style="stop-color:#F7F7F7"/>
						<stop  offset="1" style="stop-color:#C0CDD3"/>
					</linearGradient>
					<path class="st0" d="M171.06,70.65h-28.15V52.04c0-2.56-2.07-4.63-4.63-4.63c-2.56,0-4.63,2.07-4.63,4.63v23.24
						c0,2.56,2.07,4.63,4.63,4.63h32.78c2.56,0,4.63-2.07,4.63-4.63C175.69,72.72,173.62,70.65,171.06,70.65z"/>
					<g>
						
							<linearGradient id="SVGID_00000163071959674496042320000011055187206010504894_" gradientUnits="userSpaceOnUse" x1="11.1237" y1="-37.4933" x2="318.8588" y2="270.2418">
							<stop  offset="0" style="stop-color:#F7F7F7"/>
							<stop  offset="1" style="stop-color:#C0CDD3"/>
						</linearGradient>
						<path style="fill:url(#SVGID_00000163071959674496042320000011055187206010504894_);" d="M138.28,17.78
							c-10.89,0-21.07,3.05-29.74,8.34H93.09c-2.59,0-4.7,2.1-4.7,4.7c0,2.59,2.1,4.7,4.7,4.7h16.3l-16.96,5.25
							c-2.48,3.32-4.61,6.93-6.33,10.76H65.48c-2.59,0-4.7,2.1-4.7,4.7s2.1,4.7,4.7,4.7h26.8L81.95,65
							c-0.56,3.24-0.87,6.57-0.87,9.96c0,0.69,0.02,1.38,0.04,2.06H68.85c-2.59,0-4.7,2.1-4.7,4.7c0,1.29,0.53,2.47,1.37,3.32
							c0.85,0.84,2.03,1.37,3.32,1.37h22.6l-8.32,3.71c1.16,4.26,2.82,8.32,4.89,12.13H66.63c-2.59,0-4.7,2.1-4.7,4.7
							s2.1,4.7,4.7,4.7h36.66l-6.64,2.54c1.69,1.8,3.5,3.48,5.42,5.05c-0.12-0.01-0.25-0.02-0.37-0.04l32.59,34.33
							c0.33,0.35,0.71,0.64,1.1,0.87c1.98,1.59,4.89,1.42,6.67-0.45l35.67-37.58l0.03-0.03c1.37-1.31,2.68-2.69,3.93-4.13l0.46-0.48
							c0.25-0.26,0.47-0.55,0.64-0.85c7.93-9.81,12.68-22.31,12.68-35.9C195.47,43.38,169.87,17.78,138.28,17.78z M138.38,143.47
							l-11.9-12.53l-19.16-20.19l-0.04-0.03l-5.51-5.8c-0.15-0.16-0.31-0.3-0.48-0.44c-6.47-8.09-10.33-18.35-10.33-29.51
							c0-26.13,21.19-47.31,47.32-47.31c26.14,0,47.32,21.18,47.32,47.31c0,11.66-4.22,22.34-11.22,30.59l-3.7,3.9l-20.34,21.42
							L138.38,143.47z"/>
						
							<linearGradient id="SVGID_00000021827497092998089910000001109944055116555686_" gradientUnits="userSpaceOnUse" x1="-22.664" y1="-3.7056" x2="285.0711" y2="304.0295">
							<stop  offset="0" style="stop-color:#F7F7F7"/>
							<stop  offset="1" style="stop-color:#C0CDD3"/>
						</linearGradient>
						<path style="fill:url(#SVGID_00000021827497092998089910000001109944055116555686_);" d="M49.54,56.15L49.54,56.15
							c0-2.56-2.07-4.63-4.63-4.63H29.47c-2.56,0-4.63,2.07-4.63,4.63v0c0,2.56,2.07,4.63,4.63,4.63h15.44
							C47.46,60.78,49.54,58.7,49.54,56.15z"/>
						
							<linearGradient id="SVGID_00000148621522341871587860000016418730893535567235_" gradientUnits="userSpaceOnUse" x1="5.2868" y1="-31.6563" x2="313.0219" y2="276.0788">
							<stop  offset="0" style="stop-color:#F7F7F7"/>
							<stop  offset="1" style="stop-color:#C0CDD3"/>
						</linearGradient>
						<path style="fill:url(#SVGID_00000148621522341871587860000016418730893535567235_);" d="M80.05,30.76L80.05,30.76
							c0-2.56-2.07-4.63-4.63-4.63H59.98c-2.56,0-4.63,2.07-4.63,4.63v0c0,2.56,2.07,4.63,4.63,4.63h15.44
							C77.98,35.39,80.05,33.32,80.05,30.76z"/>
						
							<linearGradient id="SVGID_00000156549219624527620160000009543061925884970424_" gradientUnits="userSpaceOnUse" x1="-30.921" y1="4.5514" x2="276.8141" y2="312.2865">
							<stop  offset="0" style="stop-color:#F7F7F7"/>
							<stop  offset="1" style="stop-color:#C0CDD3"/>
						</linearGradient>
						<path style="fill:url(#SVGID_00000156549219624527620160000009543061925884970424_);" d="M51.22,77.09h-9.94
							c-2.56,0-4.63,2.07-4.63,4.63c0,2.56,2.07,4.63,4.63,4.63h9.94c2.56,0,4.63-2.07,4.63-4.63
							C55.85,79.17,53.78,77.09,51.22,77.09z"/>
						
							<linearGradient id="SVGID_00000090285023342514716150000004549583419548390326_" gradientUnits="userSpaceOnUse" x1="-45.2638" y1="18.8942" x2="262.4713" y2="326.6293">
							<stop  offset="0" style="stop-color:#F7F7F7"/>
							<stop  offset="1" style="stop-color:#C0CDD3"/>
						</linearGradient>
						<path style="fill:url(#SVGID_00000090285023342514716150000004549583419548390326_);" d="M46.03,102.32h-6.47
							c-2.56,0-4.63,2.07-4.63,4.63v0c0,2.56,2.07,4.63,4.63,4.63h6.47c2.56,0,4.63-2.07,4.63-4.63v0
							C50.66,104.39,48.59,102.32,46.03,102.32z"/>
					</g>
				</g>
			</g>
		</g>
	</g>
</g>
<g>
	
		<linearGradient id="SVGID_00000138571102852387665310000003565532227763197609_" gradientUnits="userSpaceOnUse" x1="224.2336" y1="63.4567" x2="578.4558" y2="65.2344">
		<stop  offset="0" style="stop-color:#F7F7F7"/>
		<stop  offset="1" style="stop-color:#C0CDD3"/>
	</linearGradient>
	<path style="fill:url(#SVGID_00000138571102852387665310000003565532227763197609_);" d="M239.44,48.62
		c-2.13-1.63-4.74-2.44-7.81-2.44h-10.97v34.57h10.97c3.03,0,5.61-0.81,7.77-2.44c2.16-1.65,3.26-3.63,3.26-5.94V54.56
		C242.67,52.25,241.6,50.27,239.44,48.62z M235.73,72.37c0,0.86-0.39,1.6-1.19,2.22c-0.81,0.62-1.77,0.94-2.9,0.94h-4.13V51.41h4.13
		c1.16,0,2.13,0.32,2.94,0.94c0.77,0.62,1.16,1.36,1.16,2.22V72.37z"/>
	
		<linearGradient id="SVGID_00000157986833433870012890000016935994846044002975_" gradientUnits="userSpaceOnUse" x1="224.219" y1="66.3542" x2="578.4413" y2="68.132">
		<stop  offset="0" style="stop-color:#F7F7F7"/>
		<stop  offset="1" style="stop-color:#C0CDD3"/>
	</linearGradient>
	<path style="fill:url(#SVGID_00000157986833433870012890000016935994846044002975_);" d="M265.87,54.74
		c-2.13-1.63-4.71-2.44-7.74-2.44c-2.97,0-5.52,0.79-7.68,2.39c-2.19,1.8-3.29,3.82-3.29,6.12v11.44c0,2.29,1.1,4.32,3.29,6.12
		c2.16,1.6,4.71,2.39,7.68,2.39c3.03,0,5.61-0.81,7.74-2.44c2.16-1.65,3.23-3.63,3.23-5.94h-3.39c-1.68,0-3.06,0.57-4.13,1.73
		c-0.16,0.17-0.32,0.32-0.55,0.49c-0.81,0.62-1.77,0.94-2.9,0.94c-1.19,0-2.19-0.35-3-1.01c-0.74-0.64-1.13-1.38-1.13-2.19v-3.5
		h15.1v-8.14C269.09,58.36,268.03,56.39,265.87,54.74z M262.22,63.56H254v-2.89c0-0.86,0.42-1.6,1.23-2.22
		c0.81-0.62,1.77-0.94,2.9-0.94c1.13,0,2.1,0.32,2.9,0.94c0.81,0.62,1.19,1.36,1.19,2.22V63.56z"/>
	
		<linearGradient id="SVGID_00000149372722221640465590000010014349678725076103_" gradientUnits="userSpaceOnUse" x1="224.2349" y1="63.2016" x2="578.4571" y2="64.9793">
		<stop  offset="0" style="stop-color:#F7F7F7"/>
		<stop  offset="1" style="stop-color:#C0CDD3"/>
	</linearGradient>
	<path style="fill:url(#SVGID_00000149372722221640465590000010014349678725076103_);" d="M274.97,47.24
		c-0.94,0.72-1.39,1.55-1.39,2.56v30.95h2.1c1.32,0,2.42-0.35,3.35-1.06c0.94-0.72,1.39-1.55,1.39-2.56V46.18h-2.1
		C277,46.18,275.9,46.52,274.97,47.24z"/>
	
		<linearGradient id="SVGID_00000040533411418835489870000003026093632391844031_" gradientUnits="userSpaceOnUse" x1="224.2178" y1="66.5965" x2="578.4401" y2="68.3742">
		<stop  offset="0" style="stop-color:#F7F7F7"/>
		<stop  offset="1" style="stop-color:#C0CDD3"/>
	</linearGradient>
	<path style="fill:url(#SVGID_00000040533411418835489870000003026093632391844031_);" d="M286.46,54.14
		c-0.94,0.72-1.42,1.58-1.42,2.59v24.02h2.1c1.32,0,2.45-0.35,3.39-1.06c0.94-0.72,1.39-1.55,1.39-2.56V53.08h-2.1
		C288.49,53.08,287.39,53.43,286.46,54.14z"/>
	
		<linearGradient id="SVGID_00000130617312531100759910000003988116372315703981_" gradientUnits="userSpaceOnUse" x1="224.3157" y1="47.1022" x2="578.5379" y2="48.88">
		<stop  offset="0" style="stop-color:#F7F7F7"/>
		<stop  offset="1" style="stop-color:#C0CDD3"/>
	</linearGradient>
	<path style="fill:url(#SVGID_00000130617312531100759910000003988116372315703981_);" d="M291.01,45.49
		c-0.71-0.52-1.55-0.79-2.52-0.79c-1,0-1.84,0.27-2.52,0.79c-0.71,0.54-1.06,1.18-1.06,1.95c0,0.76,0.35,1.41,1.06,1.92
		c0.68,0.52,1.52,0.79,2.52,0.79c0.97,0,1.81-0.27,2.52-0.79c0.68-0.52,1.03-1.16,1.03-1.92C292.04,46.67,291.68,46.03,291.01,45.49
		z"/>
	
		<linearGradient id="SVGID_00000168094475016935438260000017229117391197685149_" gradientUnits="userSpaceOnUse" x1="224.2184" y1="66.475" x2="578.4407" y2="68.2528">
		<stop  offset="0" style="stop-color:#F7F7F7"/>
		<stop  offset="1" style="stop-color:#C0CDD3"/>
	</linearGradient>
	<path style="fill:url(#SVGID_00000168094475016935438260000017229117391197685149_);" d="M314.27,53.92
		c-0.87,0.57-1.45,1.28-1.68,2.15l-4,16.65l-4.19-16.67c-0.23-0.86-0.77-1.58-1.65-2.15c-0.87-0.54-1.9-0.81-3.03-0.81h-3.19
		l8.39,27.67h7.45l8.06-27.67h-3.16C316.14,53.08,315.14,53.36,314.27,53.92z"/>
	
		<linearGradient id="SVGID_00000050650461060046695580000013996785690145845390_" gradientUnits="userSpaceOnUse" x1="224.221" y1="65.9639" x2="578.4432" y2="67.7417">
		<stop  offset="0" style="stop-color:#F7F7F7"/>
		<stop  offset="1" style="stop-color:#C0CDD3"/>
	</linearGradient>
	<path style="fill:url(#SVGID_00000050650461060046695580000013996785690145845390_);" d="M343.63,54.74
		c-2.13-1.63-4.71-2.44-7.74-2.44c-2.97,0-5.52,0.79-7.68,2.39c-2.19,1.8-3.29,3.82-3.29,6.12v11.44c0,2.29,1.1,4.32,3.29,6.12
		c2.16,1.6,4.71,2.39,7.68,2.39c3.03,0,5.61-0.81,7.74-2.44c2.16-1.65,3.23-3.63,3.23-5.94h-3.39c-1.68,0-3.06,0.57-4.13,1.73
		c-0.16,0.17-0.32,0.32-0.55,0.49c-0.81,0.62-1.77,0.94-2.9,0.94c-1.19,0-2.19-0.35-3-1.01c-0.74-0.64-1.13-1.38-1.13-2.19v-3.5
		h15.1v-8.14C346.85,58.36,345.79,56.39,343.63,54.74z M339.98,63.56h-8.23v-2.89c0-0.86,0.42-1.6,1.23-2.22
		c0.81-0.62,1.77-0.94,2.9-0.94c1.13,0,2.1,0.32,2.9,0.94c0.81,0.62,1.19,1.36,1.19,2.22V63.56z"/>
	
		<linearGradient id="SVGID_00000154387571721177673190000012936214938344051604_" gradientUnits="userSpaceOnUse" x1="224.2196" y1="66.25" x2="578.4418" y2="68.0278">
		<stop  offset="0" style="stop-color:#F7F7F7"/>
		<stop  offset="1" style="stop-color:#C0CDD3"/>
	</linearGradient>
	<path style="fill:url(#SVGID_00000154387571721177673190000012936214938344051604_);" d="M356.79,79.69
		c0.94-0.72,1.39-1.55,1.39-2.56V61.47c0-0.89,0.45-1.65,1.32-2.29c0.84-0.57,1.81-0.84,2.87-0.84h1.29v-5.25h-1.36
		c-2.13,0-4.06,0.42-5.77,1.26c-0.81-0.84-1.81-1.26-3.06-1.26h-2.13v27.67h2.1C354.76,80.75,355.86,80.41,356.79,79.69z"/>
	
		<linearGradient id="SVGID_00000081637672137386231860000010737722811424482208_" gradientUnits="userSpaceOnUse" x1="224.1947" y1="71.2059" x2="578.4169" y2="72.9837">
		<stop  offset="0" style="stop-color:#F7F7F7"/>
		<stop  offset="1" style="stop-color:#C0CDD3"/>
	</linearGradient>
	<path style="fill:url(#SVGID_00000081637672137386231860000010737722811424482208_);" d="M375.9,84.5
		c-0.29,0.22-0.61,0.39-1.03,0.52c-1.48,0.47-2.32,1.31-2.48,2.47v3.06c3.03,0,5.52-0.62,7.48-1.82c1.97-1.21,3.32-3.75,4.13-7.6
		l8.06-27.67h-3.16c-1.13,0-2.13,0.27-3,0.84c-0.87,0.57-1.45,1.28-1.68,2.17l-4,17.04l-4.19-17.09c-0.23-0.86-0.77-1.58-1.65-2.15
		c-0.87-0.54-1.9-0.81-3.03-0.81h-3.19l8.39,27.67l0.03,0.1c0.03,0.07,0.06,0.15,0.1,0.22c0.03,0.1,0.03,0.2,0.06,0.3
		c0.03,0.12,0.03,0.2,0.03,0.27C377.12,83.12,376.83,83.94,375.9,84.5z"/>
	
		<linearGradient id="SVGID_00000084522560833735470600000004036757404694084245_" gradientUnits="userSpaceOnUse" x1="224.2382" y1="62.5409" x2="578.4604" y2="64.3187">
		<stop  offset="0" style="stop-color:#F7F7F7"/>
		<stop  offset="1" style="stop-color:#C0CDD3"/>
	</linearGradient>
	<path style="fill:url(#SVGID_00000084522560833735470600000004036757404694084245_);" d="M420.94,70.52
		c0.35-0.2,0.65-0.39,0.94-0.62c2.13-1.63,3.19-3.6,3.19-5.92v-9.42c0-2.32-1.06-4.29-3.19-5.94c-2.1-1.63-4.71-2.44-7.77-2.44
		h-10.97v34.57h2.1c1.32,0,2.42-0.35,3.35-1.06c0.94-0.72,1.39-1.55,1.39-2.56v-4.76h4.77l2.19,5.77c0.94,1.75,2.45,2.61,4.58,2.61
		h3.81L420.94,70.52z M418.2,63.98c0,0.86-0.39,1.6-1.19,2.22c-0.81,0.62-1.77,0.94-2.9,0.94h-4.13V51.41h4.13
		c1.16,0,2.13,0.32,2.94,0.94c0.77,0.62,1.16,1.36,1.16,2.22V63.98z"/>
	
		<linearGradient id="SVGID_00000109751022342507299870000018407516123184379573_" gradientUnits="userSpaceOnUse" x1="224.2218" y1="65.8046" x2="578.444" y2="67.5824">
		<stop  offset="0" style="stop-color:#F7F7F7"/>
		<stop  offset="1" style="stop-color:#C0CDD3"/>
	</linearGradient>
	<path style="fill:url(#SVGID_00000109751022342507299870000018407516123184379573_);" d="M451.76,80.75V53.08h-2.1
		c-1.32,0-2.42,0.35-3.36,1.06c-0.94,0.72-1.42,1.58-1.42,2.59v15.59c0,0.81-0.35,1.55-1.1,2.19c-0.81,0.67-1.81,1.01-3,1.01
		c-1.13,0-2.1-0.32-2.9-0.94c-0.81-0.62-1.23-1.36-1.23-2.22V56.73c0-1.01-0.45-1.87-1.39-2.59c-0.94-0.72-2.03-1.06-3.35-1.06h-2.1
		v19.16c0,2.29,1.1,4.32,3.29,6.12c2.16,1.6,4.71,2.39,7.68,2.39c2.16,0,4.06-0.39,5.74-1.21c0.81,0.81,1.84,1.21,3.03,1.21H451.76z
		"/>
	
		<linearGradient id="SVGID_00000000940257471057078410000006470345874782977683_" gradientUnits="userSpaceOnUse" x1="224.2222" y1="65.7268" x2="578.4444" y2="67.5046">
		<stop  offset="0" style="stop-color:#F7F7F7"/>
		<stop  offset="1" style="stop-color:#C0CDD3"/>
	</linearGradient>
	<path style="fill:url(#SVGID_00000000940257471057078410000006470345874782977683_);" d="M471.31,77.13c0,1.01,0.48,1.85,1.42,2.56
		c0.94,0.72,2.03,1.06,3.36,1.06h2.1V61.47c0-2.32-1.06-4.29-3.23-5.92c-2.13-1.65-4.71-2.47-7.74-2.47c-2.13,0-4.06,0.42-5.77,1.26
		c-0.81-0.84-1.81-1.26-3.06-1.26h-2.13v27.67h2.1c1.32,0,2.42-0.35,3.35-1.06c0.94-0.72,1.39-1.55,1.39-2.56V61.47
		c0-0.86,0.42-1.6,1.23-2.22c0.81-0.62,1.77-0.91,2.9-0.91c1.13,0,2.1,0.3,2.9,0.91c0.81,0.62,1.19,1.36,1.19,2.22V77.13z"/>
	
		<linearGradient id="SVGID_00000038398142552828932340000003595571592544150435_" gradientUnits="userSpaceOnUse" x1="224.2229" y1="65.5942" x2="578.4451" y2="67.372">
		<stop  offset="0" style="stop-color:#F7F7F7"/>
		<stop  offset="1" style="stop-color:#C0CDD3"/>
	</linearGradient>
	<path style="fill:url(#SVGID_00000038398142552828932340000003595571592544150435_);" d="M504.61,80.75V61.47
		c0-2.32-1.06-4.29-3.23-5.92c-2.13-1.65-4.71-2.47-7.74-2.47c-2.13,0-4.06,0.42-5.77,1.26c-0.81-0.84-1.81-1.26-3.06-1.26h-2.13
		v27.67h2.1c1.32,0,2.42-0.35,3.35-1.06c0.94-0.72,1.39-1.55,1.39-2.56V61.47c0-0.86,0.42-1.6,1.23-2.22
		c0.81-0.62,1.77-0.91,2.9-0.91c1.13,0,2.1,0.3,2.9,0.91c0.81,0.62,1.19,1.36,1.19,2.22v15.66c0,1.01,0.48,1.85,1.42,2.56
		c0.94,0.72,2.03,1.06,3.36,1.06H504.61z"/>
	
		<linearGradient id="SVGID_00000071544873790551482640000013179625306632553402_" gradientUnits="userSpaceOnUse" x1="224.2256" y1="65.0396" x2="578.4479" y2="66.8174">
		<stop  offset="0" style="stop-color:#F7F7F7"/>
		<stop  offset="1" style="stop-color:#C0CDD3"/>
	</linearGradient>
	<path style="fill:url(#SVGID_00000071544873790551482640000013179625306632553402_);" d="M527.81,54.74
		c-2.13-1.63-4.71-2.44-7.74-2.44c-2.97,0-5.52,0.79-7.68,2.39c-2.19,1.8-3.29,3.82-3.29,6.12v11.44c0,2.29,1.1,4.32,3.29,6.12
		c2.16,1.6,4.71,2.39,7.68,2.39c3.03,0,5.61-0.81,7.74-2.44c2.16-1.65,3.23-3.63,3.23-5.94h-3.39c-1.68,0-3.06,0.57-4.13,1.73
		c-0.16,0.17-0.32,0.32-0.55,0.49c-0.81,0.62-1.77,0.94-2.9,0.94c-1.19,0-2.19-0.35-3-1.01c-0.74-0.64-1.13-1.38-1.13-2.19v-3.5
		h15.1v-8.14C531.03,58.36,529.97,56.39,527.81,54.74z M524.16,63.56h-8.23v-2.89c0-0.86,0.42-1.6,1.23-2.22
		c0.81-0.62,1.77-0.94,2.9-0.94c1.13,0,2.1,0.32,2.9,0.94c0.81,0.62,1.19,1.36,1.19,2.22V63.56z"/>
	
		<linearGradient id="SVGID_00000167362855772232315210000014262397231831854010_" gradientUnits="userSpaceOnUse" x1="224.2242" y1="65.3257" x2="578.4464" y2="67.1034">
		<stop  offset="0" style="stop-color:#F7F7F7"/>
		<stop  offset="1" style="stop-color:#C0CDD3"/>
	</linearGradient>
	<path style="fill:url(#SVGID_00000167362855772232315210000014262397231831854010_);" d="M540.72,54.34
		c-0.81-0.84-1.81-1.26-3.06-1.26h-2.13v27.67h2.1c1.32,0,2.42-0.35,3.35-1.06c0.94-0.72,1.39-1.55,1.39-2.56V61.47
		c0-0.89,0.45-1.65,1.32-2.29c0.84-0.57,1.81-0.84,2.87-0.84h1.29v-5.25h-1.36C544.36,53.08,542.43,53.5,540.72,54.34z"/>
	
		<linearGradient id="SVGID_00000164474361698191985590000007307625030912097687_" gradientUnits="userSpaceOnUse" x1="224.2247" y1="65.2172" x2="578.447" y2="66.9949">
		<stop  offset="0" style="stop-color:#F7F7F7"/>
		<stop  offset="1" style="stop-color:#C0CDD3"/>
	</linearGradient>
	<path style="fill:url(#SVGID_00000164474361698191985590000007307625030912097687_);" d="M566.72,65.66
		c-5.03-1.5-7.55-3.03-7.55-4.56v-0.05c0-0.86,0.42-1.53,1.23-2c0.74-0.44,1.65-0.69,2.68-0.72c1.19-0.02,2.19,0.25,3.06,0.86
		c0.23,0.17,0.45,0.35,0.61,0.54c1.03,1.16,2.36,1.73,4,1.73h3.52c0-2.32-1.06-4.29-3.23-5.92c-2.13-1.65-4.71-2.47-7.74-2.47
		c-3,0-5.58,0.74-7.74,2.24c-2.16,1.5-3.23,3.4-3.23,5.72c0,3.33,2.52,5.87,7.55,7.62c5,1.75,7.52,3.26,7.52,4.54
		c0,0.86-0.39,1.48-1.19,1.8c-0.81,0.35-1.77,0.52-2.9,0.52c-1.13,0-2.1-0.32-2.9-0.94c-0.29-0.2-0.52-0.42-0.68-0.64
		c-0.84-1.06-1.97-1.58-3.39-1.58h-4c0,2.32,1.06,4.29,3.23,5.94c2.16,1.63,4.74,2.44,7.74,2.44c3.03,0,5.61-0.67,7.74-2.02
		c2.16-1.36,3.23-3.21,3.23-5.52C574.27,69.68,571.75,67.17,566.72,65.66z"/>
	
		<linearGradient id="SVGID_00000026162773447695161740000013231959428328300463_" gradientUnits="userSpaceOnUse" x1="223.9788" y1="114.2263" x2="578.201" y2="116.004">
		<stop  offset="0" style="stop-color:#F7F7F7"/>
		<stop  offset="1" style="stop-color:#C0CDD3"/>
	</linearGradient>
	<polygon style="fill:url(#SVGID_00000026162773447695161740000013231959428328300463_);" points="269.52,122.99 271,122.99 
		271,115.15 277.96,115.15 277.96,113.88 271,113.88 271,107.23 279.18,107.23 279.18,105.97 269.52,105.97 	"/>
	
		<linearGradient id="SVGID_00000176003000021793052250000012696526586851970189_" gradientUnits="userSpaceOnUse" x1="223.9661" y1="116.7522" x2="578.1883" y2="118.5299">
		<stop  offset="0" style="stop-color:#F7F7F7"/>
		<stop  offset="1" style="stop-color:#C0CDD3"/>
	</linearGradient>
	<path style="fill:url(#SVGID_00000176003000021793052250000012696526586851970189_);" d="M290.53,112.52
		c-0.67-1.06-1.88-1.6-3.62-1.6c-1.81,0-3.19,0.54-4.13,1.62l0.98,0.79c0.76-0.81,1.77-1.22,3.03-1.22c1.13,0,1.92,0.31,2.38,0.93
		c0.32,0.43,0.48,1.13,0.48,2.1v1.03h-3.08c-1.57,0-2.7,0.23-3.39,0.69c-0.76,0.51-1.14,1.47-1.14,2.89c0,1.19,0.27,2.05,0.81,2.58
		c0.62,0.59,1.75,0.88,3.39,0.88c0.94,0,1.67-0.08,2.19-0.25c0.52-0.17,0.98-0.46,1.36-0.87l0.12,0.91h1.14v-7.65
		c0-0.73-0.04-1.3-0.11-1.71C290.87,113.23,290.74,112.86,290.53,112.52z M289.65,119.42c0,0.83-0.12,1.4-0.36,1.72
		c-0.45,0.57-1.37,0.86-2.77,0.86c-1.08,0-1.85-0.14-2.31-0.43c-0.53-0.32-0.79-0.92-0.79-1.81c0-0.84,0.21-1.45,0.64-1.84
		c0.49-0.41,1.36-0.62,2.6-0.62h2.98V119.42z"/>
	
		<linearGradient id="SVGID_00000136412552800365788590000000918570157758442655_" gradientUnits="userSpaceOnUse" x1="223.9664" y1="116.6837" x2="578.1887" y2="118.4615">
		<stop  offset="0" style="stop-color:#F7F7F7"/>
		<stop  offset="1" style="stop-color:#C0CDD3"/>
	</linearGradient>
	<path style="fill:url(#SVGID_00000136412552800365788590000000918570157758442655_);" d="M303.83,117.27
		c-0.3-0.24-0.68-0.43-1.14-0.56c-0.46-0.13-1.14-0.27-2.03-0.39c-1-0.14-1.68-0.32-2.03-0.52c-0.54-0.32-0.81-0.83-0.81-1.55
		c0-0.64,0.18-1.14,0.55-1.5c0.43-0.41,1.07-0.62,1.93-0.62c0.67,0,1.23,0.1,1.68,0.29c0.45,0.19,0.87,0.5,1.25,0.93l1.1-0.69
		c-0.91-1.14-2.29-1.72-4.15-1.72c-1.11,0-1.99,0.26-2.65,0.76c-0.75,0.59-1.12,1.46-1.12,2.62c0,0.95,0.31,1.7,0.93,2.24
		c0.29,0.25,0.64,0.45,1.05,0.58c0.41,0.14,1.04,0.27,1.88,0.39c1.13,0.16,1.9,0.35,2.31,0.57c0.59,0.32,0.88,0.87,0.88,1.67
		c0,1.48-1.1,2.22-3.29,2.22c-0.79,0-1.45-0.09-1.98-0.26c-0.52-0.17-1-0.48-1.43-0.91l-1.03,0.74c0.87,1.1,2.37,1.65,4.48,1.65
		c3.1,0,4.65-1.13,4.65-3.39C304.88,118.63,304.53,117.78,303.83,117.27z"/>
	
		<linearGradient id="SVGID_00000177471600576225992630000010178209907728848782_" gradientUnits="userSpaceOnUse" x1="223.9766" y1="114.653" x2="578.1989" y2="116.4308">
		<stop  offset="0" style="stop-color:#F7F7F7"/>
		<stop  offset="1" style="stop-color:#C0CDD3"/>
	</linearGradient>
	<path style="fill:url(#SVGID_00000177471600576225992630000010178209907728848782_);" d="M312.31,121.32
		c-0.28-0.3-0.42-0.86-0.42-1.67v-7.32h2.31v-1.19h-2.31v-3.93h-1.38l-0.05,3.93h-1.48v1.19h1.48v7.2c0,1.29,0.2,2.17,0.6,2.65
		c0.44,0.54,1.38,0.81,2.81,0.81h0.45v-1.22h-0.45C313.11,121.78,312.59,121.63,312.31,121.32z"/>
	
		<linearGradient id="SVGID_00000048463811543744579930000018278708669196120474_" gradientUnits="userSpaceOnUse" x1="223.9796" y1="114.0586" x2="578.2018" y2="115.8364">
		<stop  offset="0" style="stop-color:#F7F7F7"/>
		<stop  offset="1" style="stop-color:#C0CDD3"/>
	</linearGradient>
	<path style="fill:url(#SVGID_00000048463811543744579930000018278708669196120474_);" d="M338.39,115.34
		c-0.37,1.37-0.98,2.62-1.84,3.74l-3.67-5.01c1.3-0.84,2.23-1.61,2.79-2.29c0.64-0.76,0.95-1.63,0.95-2.6c0-1.03-0.33-1.88-1-2.55
		c-0.76-0.78-1.81-1.17-3.15-1.17c-1.11,0-2.03,0.29-2.74,0.86c-0.84,0.68-1.26,1.6-1.26,2.74c0,0.6,0.14,1.17,0.41,1.71
		c0.27,0.53,0.91,1.5,1.93,2.9c-1.11,0.62-1.94,1.13-2.48,1.53c-1.54,1.18-2.31,2.58-2.31,4.22c0,1.24,0.36,2.24,1.07,3
		c0.81,0.87,1.96,1.31,3.46,1.31c0.95,0,1.93-0.21,2.93-0.64c1.14-0.51,2.13-1.21,2.96-2.1l1.48,2h1.74l-2.24-2.91
		c1.08-1.37,1.89-2.95,2.43-4.75H338.39z M330.2,110.34c-0.2-0.37-0.3-0.8-0.3-1.28c0-0.67,0.21-1.22,0.64-1.65
		c0.48-0.49,1.14-0.74,1.98-0.74c0.75,0,1.36,0.2,1.84,0.6c0.56,0.48,0.83,1.13,0.83,1.96c0,0.68-0.25,1.32-0.74,1.91
		c-0.49,0.59-1.3,1.22-2.43,1.88C331,111.61,330.4,110.72,330.2,110.34z M330.76,122.47c-0.94,0-1.69-0.24-2.27-0.72
		c-0.67-0.56-1-1.34-1-2.34c0-1.32,0.65-2.42,1.96-3.31c0.48-0.35,1.22-0.81,2.24-1.38l3.93,5.32
		C334.06,121.66,332.44,122.47,330.76,122.47z"/>
	
		<linearGradient id="SVGID_00000028314096636264511110000012472772482473987496_" gradientUnits="userSpaceOnUse" x1="223.9808" y1="113.8165" x2="578.2031" y2="115.5943">
		<stop  offset="0" style="stop-color:#F7F7F7"/>
		<stop  offset="1" style="stop-color:#C0CDD3"/>
	</linearGradient>
	<path style="fill:url(#SVGID_00000028314096636264511110000012472772482473987496_);" d="M363.98,110.64c0-1.48-0.4-2.62-1.22-3.43
		c-0.43-0.45-0.95-0.76-1.57-0.95c-0.62-0.19-1.42-0.29-2.38-0.29h-5.65v17.03h1.48v-7.56h4.24l3.58,7.56h1.65l-3.77-7.73
		C362.76,114.93,363.98,113.39,363.98,110.64z M354.6,114.19v-6.99h4.08c2.53,0,3.79,1.17,3.79,3.51c0,2.32-1.18,3.48-3.53,3.48
		H354.6z"/>
	
		<linearGradient id="SVGID_00000097499132843489559610000015877656804293181061_" gradientUnits="userSpaceOnUse" x1="224.0184" y1="106.329" x2="578.2407" y2="108.1067">
		<stop  offset="0" style="stop-color:#F7F7F7"/>
		<stop  offset="1" style="stop-color:#C0CDD3"/>
	</linearGradient>
	
		<rect x="369.56" y="105.92" style="fill:url(#SVGID_00000097499132843489559610000015877656804293181061_);" width="1.43" height="2.29"/>
	
		<linearGradient id="SVGID_00000171692119083078353070000005090643789555760256_" gradientUnits="userSpaceOnUse" x1="223.9682" y1="116.3321" x2="578.1904" y2="118.1098">
		<stop  offset="0" style="stop-color:#F7F7F7"/>
		<stop  offset="1" style="stop-color:#C0CDD3"/>
	</linearGradient>
	
		<rect x="369.56" y="111.14" style="fill:url(#SVGID_00000171692119083078353070000005090643789555760256_);" width="1.43" height="11.85"/>
	
		<linearGradient id="SVGID_00000012437640325148481730000017274250832453962390_" gradientUnits="userSpaceOnUse" x1="223.9551" y1="118.9497" x2="578.1773" y2="120.7275">
		<stop  offset="0" style="stop-color:#F7F7F7"/>
		<stop  offset="1" style="stop-color:#C0CDD3"/>
	</linearGradient>
	<path style="fill:url(#SVGID_00000012437640325148481730000017274250832453962390_);" d="M384.58,112.62
		c-0.41-0.6-0.91-1.04-1.49-1.3c-0.58-0.26-1.32-0.39-2.21-0.39c-2.94,0-4.41,1.74-4.41,5.22v1.81c0,3.5,1.46,5.25,4.39,5.25
		c1.65,0,2.84-0.53,3.55-1.6v1.67c-0.03,2.73-1.22,4.1-3.58,4.1c-1.22,0-2.18-0.4-2.86-1.19l-1.07,0.69
		c0.86,1.11,2.19,1.67,3.98,1.67c3.29,0,4.94-1.8,4.94-5.41v-12h-1.14L384.58,112.62z M384.41,117.94c0,2.7-1.11,4.05-3.31,4.05
		c-2.13,0-3.2-1.36-3.2-4.08v-1.69c0-2.73,1.06-4.1,3.2-4.1c1.16,0,2.02,0.4,2.58,1.19c0.25,0.35,0.43,0.74,0.54,1.16
		c0.1,0.42,0.17,1,0.2,1.73V117.94z"/>
	
		<linearGradient id="SVGID_00000062161210569601443450000000176740998720005046_" gradientUnits="userSpaceOnUse" x1="223.9818" y1="113.6338" x2="578.204" y2="115.4116">
		<stop  offset="0" style="stop-color:#F7F7F7"/>
		<stop  offset="1" style="stop-color:#C0CDD3"/>
	</linearGradient>
	<path style="fill:url(#SVGID_00000062161210569601443450000000176740998720005046_);" d="M396.53,110.93
		c-0.81,0-1.48,0.12-2.01,0.37c-0.53,0.25-1,0.65-1.4,1.2v-6.53h-1.43v17.03h1.43v-6.06c0-1.59,0.21-2.76,0.64-3.51
		c0.49-0.84,1.34-1.26,2.53-1.26c0.99,0,1.72,0.28,2.19,0.84c0.54,0.64,0.81,1.73,0.81,3.29v6.7h1.43v-6.82
		c0-1.33-0.13-2.32-0.38-2.96C399.75,111.69,398.48,110.93,396.53,110.93z"/>
	
		<linearGradient id="SVGID_00000001664176792043795840000008093222026767327114_" gradientUnits="userSpaceOnUse" x1="223.9791" y1="114.1688" x2="578.2013" y2="115.9465">
		<stop  offset="0" style="stop-color:#F7F7F7"/>
		<stop  offset="1" style="stop-color:#C0CDD3"/>
	</linearGradient>
	<path style="fill:url(#SVGID_00000001664176792043795840000008093222026767327114_);" d="M408.8,121.32
		c-0.28-0.3-0.42-0.86-0.42-1.67v-7.32h2.31v-1.19h-2.31v-3.93H407l-0.05,3.93h-1.48v1.19h1.48v7.2c0,1.29,0.2,2.17,0.6,2.65
		c0.45,0.54,1.38,0.81,2.82,0.81h0.45v-1.22h-0.45C409.59,121.78,409.07,121.63,408.8,121.32z"/>
	
		<linearGradient id="SVGID_00000073710587322316024030000007706710568007883941_" gradientUnits="userSpaceOnUse" x1="223.9826" y1="113.4699" x2="578.2048" y2="115.2477">
		<stop  offset="0" style="stop-color:#F7F7F7"/>
		<stop  offset="1" style="stop-color:#C0CDD3"/>
	</linearGradient>
	<path style="fill:url(#SVGID_00000073710587322316024030000007706710568007883941_);" d="M431.8,107.18
		c-0.97-0.81-2.35-1.22-4.13-1.22h-5.27v17.03h5.27c1.78,0,3.15-0.41,4.13-1.22c0.7-0.59,1.2-1.28,1.49-2.07
		c0.29-0.79,0.44-1.84,0.44-3.15v-4.15c0-1.3-0.15-2.36-0.44-3.16C432.99,108.44,432.5,107.75,431.8,107.18z M432.25,116.39
		c0,1.05-0.11,1.92-0.33,2.6c-0.22,0.68-0.59,1.26-1.1,1.74c-0.73,0.68-1.85,1.03-3.36,1.03h-3.58v-14.55h3.58
		c1.51,0,2.63,0.34,3.36,1.03c0.51,0.48,0.87,1.05,1.1,1.73c0.22,0.68,0.33,1.55,0.33,2.61V116.39z"/>
	
		<linearGradient id="SVGID_00000007394745305772043870000002082200550766021786_" gradientUnits="userSpaceOnUse" x1="224.0202" y1="105.9773" x2="578.2424" y2="107.7551">
		<stop  offset="0" style="stop-color:#F7F7F7"/>
		<stop  offset="1" style="stop-color:#C0CDD3"/>
	</linearGradient>
	
		<rect x="439.62" y="105.92" style="fill:url(#SVGID_00000007394745305772043870000002082200550766021786_);" width="1.43" height="2.29"/>
	
		<linearGradient id="SVGID_00000149379719170142799610000008193884738328013464_" gradientUnits="userSpaceOnUse" x1="223.97" y1="115.9804" x2="578.1922" y2="117.7582">
		<stop  offset="0" style="stop-color:#F7F7F7"/>
		<stop  offset="1" style="stop-color:#C0CDD3"/>
	</linearGradient>
	
		<rect x="439.62" y="111.14" style="fill:url(#SVGID_00000149379719170142799610000008193884738328013464_);" width="1.43" height="11.85"/>
	
		<linearGradient id="SVGID_00000003797968587802405310000011851734646119007618_" gradientUnits="userSpaceOnUse" x1="223.9707" y1="115.8288" x2="578.1929" y2="117.6066">
		<stop  offset="0" style="stop-color:#F7F7F7"/>
		<stop  offset="1" style="stop-color:#C0CDD3"/>
	</linearGradient>
	<path style="fill:url(#SVGID_00000003797968587802405310000011851734646119007618_);" d="M448.27,112.67l-0.14-1.53h-1.14v11.85
		h1.43v-5.82c0-1.64,0.18-2.85,0.55-3.62c0.43-0.91,1.16-1.36,2.19-1.36c0.56,0,1.12,0.18,1.69,0.52l0.6-1.24
		c-0.7-0.37-1.41-0.55-2.15-0.55C449.89,110.93,448.88,111.51,448.27,112.67z"/>
	
		<linearGradient id="SVGID_00000057857221675769944630000013757437046365914781_" gradientUnits="userSpaceOnUse" x1="223.9705" y1="115.8728" x2="578.1927" y2="117.6506">
		<stop  offset="0" style="stop-color:#F7F7F7"/>
		<stop  offset="1" style="stop-color:#C0CDD3"/>
	</linearGradient>
	<path style="fill:url(#SVGID_00000057857221675769944630000013757437046365914781_);" d="M461.63,110.93
		c-3.11,0-4.67,1.88-4.67,5.63v1.07c0,3.72,1.66,5.58,4.98,5.58c1.81,0,3.15-0.56,4.01-1.67l-1.07-0.69
		c-0.65,0.76-1.6,1.14-2.84,1.14c-1.11,0-1.97-0.3-2.58-0.91c-0.72-0.72-1.07-1.79-1.07-3.22v-0.62h7.99v-0.69
		c0-1.8-0.33-3.16-1-4.08C464.61,111.44,463.36,110.93,461.63,110.93z M464.99,116.15h-6.61v-0.14c0-1.18,0.25-2.09,0.74-2.74
		c0.56-0.76,1.41-1.14,2.55-1.14c1.19,0,2.06,0.39,2.6,1.17c0.48,0.67,0.72,1.57,0.72,2.7V116.15z"/>
	
		<linearGradient id="SVGID_00000034802441910120562250000008502376495543179402_" gradientUnits="userSpaceOnUse" x1="223.9709" y1="115.8016" x2="578.1931" y2="117.5794">
		<stop  offset="0" style="stop-color:#F7F7F7"/>
		<stop  offset="1" style="stop-color:#C0CDD3"/>
	</linearGradient>
	<path style="fill:url(#SVGID_00000034802441910120562250000008502376495543179402_);" d="M476.06,121.99c-1.02,0-1.8-0.3-2.36-0.91
		c-0.65-0.68-0.98-1.73-0.98-3.15v-1.34c0-1.41,0.23-2.49,0.69-3.22c0.54-0.84,1.41-1.26,2.62-1.26c0.57,0,1.05,0.09,1.42,0.27
		c0.37,0.18,0.73,0.5,1.06,0.94l1.12-0.64c-0.76-1.18-2-1.77-3.7-1.77c-3.1,0-4.65,1.92-4.65,5.75v1.1c0,3.62,1.57,5.44,4.72,5.44
		c1.72,0,3-0.56,3.86-1.69l-1.07-0.67C478.15,121.61,477.23,121.99,476.06,121.99z"/>
	
		<linearGradient id="SVGID_00000180334621645648119560000005596328323320843692_" gradientUnits="userSpaceOnUse" x1="223.981" y1="113.7748" x2="578.2032" y2="115.5526">
		<stop  offset="0" style="stop-color:#F7F7F7"/>
		<stop  offset="1" style="stop-color:#C0CDD3"/>
	</linearGradient>
	<path style="fill:url(#SVGID_00000180334621645648119560000005596328323320843692_);" d="M487.3,121.32
		c-0.28-0.3-0.42-0.86-0.42-1.67v-7.32h2.31v-1.19h-2.31v-3.93h-1.38l-0.05,3.93h-1.48v1.19h1.48v7.2c0,1.29,0.2,2.17,0.6,2.65
		c0.45,0.54,1.38,0.81,2.82,0.81h0.45v-1.22h-0.45C488.1,121.78,487.58,121.63,487.3,121.32z"/>
	
		<linearGradient id="SVGID_00000054971151103438281330000007678855443244707769_" gradientUnits="userSpaceOnUse" x1="224.0216" y1="105.7028" x2="578.2438" y2="107.4806">
		<stop  offset="0" style="stop-color:#F7F7F7"/>
		<stop  offset="1" style="stop-color:#C0CDD3"/>
	</linearGradient>
	
		<rect x="494.32" y="105.92" style="fill:url(#SVGID_00000054971151103438281330000007678855443244707769_);" width="1.43" height="2.29"/>
	
		<linearGradient id="SVGID_00000029763259087078636980000014149540979676089238_" gradientUnits="userSpaceOnUse" x1="223.9713" y1="115.7059" x2="578.1936" y2="117.4837">
		<stop  offset="0" style="stop-color:#F7F7F7"/>
		<stop  offset="1" style="stop-color:#C0CDD3"/>
	</linearGradient>
	
		<rect x="494.32" y="111.14" style="fill:url(#SVGID_00000029763259087078636980000014149540979676089238_);" width="1.43" height="11.85"/>
	
		<linearGradient id="SVGID_00000044167707731350687190000006298549934333398946_" gradientUnits="userSpaceOnUse" x1="223.9716" y1="115.6507" x2="578.1938" y2="117.4285">
		<stop  offset="0" style="stop-color:#F7F7F7"/>
		<stop  offset="1" style="stop-color:#C0CDD3"/>
	</linearGradient>
	<path style="fill:url(#SVGID_00000044167707731350687190000006298549934333398946_);" d="M506.05,110.93
		c-3.2,0-4.79,1.74-4.79,5.22v1.84c0,3.48,1.59,5.22,4.77,5.22c1.51,0,2.66-0.37,3.46-1.12c0.91-0.86,1.36-2.23,1.36-4.1v-1.84
		C510.85,112.67,509.25,110.93,506.05,110.93z M509.42,117.94c0,2.7-1.12,4.05-3.36,4.05c-1.07,0-1.87-0.28-2.41-0.83
		c-0.6-0.64-0.92-1.71-0.95-3.22v-1.72c0-2.73,1.12-4.1,3.36-4.1s3.36,1.37,3.36,4.1V117.94z"/>
	
		<linearGradient id="SVGID_00000106135115616334902060000001674407030866502825_" gradientUnits="userSpaceOnUse" x1="223.9725" y1="115.4795" x2="578.1947" y2="117.2572">
		<stop  offset="0" style="stop-color:#F7F7F7"/>
		<stop  offset="1" style="stop-color:#C0CDD3"/>
	</linearGradient>
	<path style="fill:url(#SVGID_00000106135115616334902060000001674407030866502825_);" d="M521.13,110.93
		c-1.67,0-2.83,0.6-3.48,1.81l-0.14-1.6h-1.12v11.85h1.43v-5.99c0-1.62,0.21-2.81,0.64-3.55c0.48-0.86,1.32-1.29,2.53-1.29
		c1.3,0,2.19,0.53,2.65,1.6c0.24,0.56,0.36,1.4,0.36,2.53v6.7h1.43v-6.82c0-1.33-0.13-2.32-0.38-2.96
		C524.45,111.69,523.14,110.93,521.13,110.93z"/>
</g>
</svg>
